<svg xmlns="http://www.w3.org/2000/svg" viewBox="0 0 623.62 255.12"><defs><style>.cls-1{fill:#fff;}.cls-2{fill:#3e3e3e;}.cls-3{fill:#5dbefd;}.cls-4{opacity:0.8;}</style></defs><title>nebulab</title><g id="BG"><rect class="cls-1" width="623.62" height="255.12"/></g><g id="Logo"><path class="cls-2" d="M239.94,162.93V114h12.62v3.94a21.58,21.58,0,0,1,13.83-5,22.06,22.06,0,0,1,17,7.88c3.23,3.83,5,8.78,5,17.16v24.94H275.27V137c0-4.85-1.11-7.37-2.92-9.19a10.35,10.35,0,0,0-7.37-2.72,15.62,15.62,0,0,0-11.92,6.06v31.8Z"/><path class="cls-2" d="M342.21,155.15c-4.74,5.66-12.52,8.79-20.09,8.79-14.64,0-25.64-10.1-25.64-25.45,0-13.62,9.29-25.54,23.82-25.54,13.53,0,23.12,11.41,23.12,25a21.89,21.89,0,0,1-.3,3.74H309.2c.7,6.86,6.26,11.61,13.22,11.61a17.3,17.3,0,0,0,12.32-5.66Zm-12.22-23a9.76,9.76,0,0,0-9.69-8.58c-5.45,0-9.89,4.14-10.5,8.58Z"/><path class="cls-2" d="M352.51,162.93V91.25h13.12V117.5A21.71,21.71,0,0,1,379.46,113c13.33,0,24,11.11,24,25.54a26.28,26.28,0,0,1-6.26,17.17,24.63,24.63,0,0,1-18.47,8.28A20.49,20.49,0,0,1,365.13,159v3.94Zm13.12-17.17a14.35,14.35,0,0,0,11.82,6.06c7.36,0,12.92-5.65,12.92-13.33,0-7.06-4.95-13.42-12.62-13.42a15.05,15.05,0,0,0-12.12,6.06Z"/><path class="cls-2" d="M459,114v49H446.4V159a19.48,19.48,0,0,1-13.22,4.95,21.42,21.42,0,0,1-16.66-7.88c-3.13-3.84-4.95-8.88-4.95-16.15V114h13.12v26.45c0,4.44.91,6.67,2.43,8.38a9.83,9.83,0,0,0,7.37,3c5.55,0,9.59-3.73,11.41-6.06V114Z"/><path class="cls-2" d="M485.27,162.93H472.15V91.25h13.12Z"/><path class="cls-2" d="M545.34,162.93H532.72V159a20.49,20.49,0,0,1-13.63,4.95,24.63,24.63,0,0,1-18.47-8.28,26.28,26.28,0,0,1-6.26-17.17c0-14.43,10.7-25.54,24-25.54a22.44,22.44,0,0,1,14.34,5V114h12.62Zm-13.12-31.8a15.05,15.05,0,0,0-12.12-6.06c-7.67,0-12.62,6.36-12.62,13.42,0,7.68,5.55,13.33,12.92,13.33a14.35,14.35,0,0,0,11.82-6.06Z"/><path class="cls-2" d="M558.47,162.93V91.25h13.12V117.5A21.71,21.71,0,0,1,585.42,113c13.33,0,24,11.11,24,25.54a26.28,26.28,0,0,1-6.26,17.17,24.65,24.65,0,0,1-18.48,8.28A20.46,20.46,0,0,1,571.09,159v3.94Zm13.12-17.17a14.33,14.33,0,0,0,11.81,6.06c7.37,0,12.92-5.65,12.92-13.33,0-7.06-4.94-13.42-12.62-13.42a15,15,0,0,0-12.11,6.06Z"/><path class="cls-3" d="M14.17,127.56a91,91,0,1,1,91,91,91,91,0,0,1-91-91"/><polygon class="cls-1" points="88.14 144.31 57.57 174.88 98.14 163.95 88.14 144.31"/><g class="cls-4"><polygon class="cls-1" points="68.5 134.31 57.57 174.88 88.14 144.31 68.5 134.31"/></g><polygon class="cls-1" points="152.8 80.23 99.34 133.7 119.74 173.76 152.8 80.23"/><g class="cls-4"><polygon class="cls-1" points="59.27 113.3 99.34 133.7 152.8 80.23 59.27 113.3"/></g></g></svg>