<?xml version="1.0" encoding="UTF-8"?>
<!-- Generator: Adobe Illustrator 16.0.3, SVG Export Plug-In . SVG Version: 6.00 Build 0)  -->
<!DOCTYPE svg PUBLIC "-//W3C//DTD SVG 1.1//EN" "http://www.w3.org/Graphics/SVG/1.1/DTD/svg11.dtd">
<svg version="1.1" xmlns="http://www.w3.org/2000/svg" xmlns:xlink="http://www.w3.org/1999/xlink" x="0px" y="0px" width="623.6px" height="255.1px" viewBox="0 0 623.6 255.1" style="enable-background:new 0 0 623.6 255.1;" xml:space="preserve">
<style type="text/css">
<![CDATA[
	.st0{fill:#FFFFFF;}
	.st1{fill:#9D9FA2;}
	.st2{fill:#0076A9;}
]]>
</style>
<g id="BG">
	<rect class="st0" width="623.6" height="255.1"/>
</g>
<g id="Logo">
	<g>
		<g>
			<g>
				<path class="st2" d="M150.6,200.9c1.4,1.4,2.3,3,2.5,4.9h-2.9c-0.3-1.4-1-2.5-1.9-3.3c-1-0.9-2.3-1.3-4.1-1.3      c-2.2,0-3.8,0.7-5.1,2.3c-1.3,1.4-1.9,3.8-1.9,7c0,2.6,0.6,4.6,1.7,6.2c1.2,1.6,2.9,2.3,5.2,2.3c2.2,0,3.8-0.9,4.9-2.5      c0.6-0.9,1-2,1.3-3.5h2.9c-0.3,2.3-1.2,4.2-2.5,5.8c-1.7,1.9-4.1,2.8-7,2.8c-2.5,0-4.6-0.7-6.4-2.3c-2.2-2-3.3-5.2-3.3-9.4      c0-3.2,0.9-5.8,2.5-8c1.9-2.2,4.3-3.3,7.5-3.3C147,198.7,149,199.4,150.6,200.9z"/>
				<path class="st2" d="M178.2,202.5c1.4,1.9,2.2,4.3,2.2,7.4c0,3.2-0.9,5.9-2.5,8.1c-1.9,2.6-4.8,3.8-8.3,3.8      c-3.3,0-5.9-1.2-8-3.3c-1.7-2.2-2.6-4.8-2.6-8.1c0-2.9,0.7-5.5,2.2-7.5c1.9-2.8,4.6-4.1,8.4-4.1S176.3,200,178.2,202.5z       M175.6,216.4c1.2-1.9,1.7-4.1,1.7-6.4c0-2.6-0.7-4.6-2-6.2c-1.3-1.6-3.2-2.3-5.5-2.3c-2.3,0-4.1,0.7-5.5,2.3      c-1.4,1.6-2.2,3.8-2.2,6.8c0,2.5,0.6,4.5,1.9,6.1c1.2,1.6,3.2,2.5,5.9,2.5C172.5,219.1,174.4,218.2,175.6,216.4z"/>
				<path class="st2" d="M187,199.3h8.7c2.9,0,5.2,1,7,3.2c1.4,1.9,2.2,4.3,2.2,7.4c0,2.3-0.4,4.3-1.3,6.2c-1.4,3.3-4.1,4.9-7.8,4.9      H187V199.3L187,199.3z M195.1,218.7c1,0,1.7-0.1,2.5-0.3c1.2-0.4,2-1.2,2.8-2.2c0.6-0.9,1-2,1.3-3.3c0.1-0.9,0.3-1.6,0.3-2.3      c0-2.8-0.6-4.8-1.6-6.2c-1-1.4-2.8-2.2-5.1-2.2h-5.1V219h4.9V218.7z"/>
				<path class="st2" d="M212.2,199.3H228v2.6h-12.9v6.7h12v2.5h-12v7.4h13.2v2.6h-16.1V199.3L212.2,199.3z"/>
				<path class="st2" d="M251.5,199.3h3.3l8,21.9h-3.2l-2.3-6.5h-8.5l-2.3,6.5h-3L251.5,199.3z M256.4,212.2l-3.3-9.7l-3.5,9.7      H256.4z"/>
				<path class="st2" d="M268.4,199.3h3.5l10.9,17.7v-17.7h2.8v21.9h-3.3l-11-17.7v17.7h-2.8V199.3z"/>
				<path class="st2" d="M293.5,199.3h8.7c2.9,0,5.2,1,7,3.2c1.4,1.9,2.2,4.3,2.2,7.4c0,2.3-0.4,4.3-1.3,6.2      c-1.5,3.3-4.1,4.9-7.8,4.9h-8.7V199.3z M301.7,218.7c1,0,1.7-0.1,2.5-0.3c1.2-0.4,2-1.2,2.8-2.2c0.6-0.9,1-2,1.3-3.3      c0.1-0.9,0.3-1.6,0.3-2.3c0-2.8-0.6-4.8-1.6-6.2c-1-1.4-2.8-2.2-5.1-2.2h-5.1V219h4.9V218.7z"/>
				<path class="st2" d="M331.9,214c0,1.3,0.3,2.2,0.9,3c1,1.4,2.6,2.2,4.9,2.2c1,0,2-0.1,2.9-0.4c1.7-0.6,2.6-1.7,2.6-3.3      c0-1.2-0.3-2-1-2.6c-0.7-0.4-1.9-0.9-3.5-1.3l-2.9-0.7c-1.9-0.4-3.2-0.9-3.9-1.4c-1.3-0.9-2-2.3-2-4.1c0-2,0.7-3.6,2-4.8      c1.3-1.3,3.2-1.9,5.7-1.9c2.2,0,4.1,0.6,5.6,1.6c1.6,1.2,2.3,2.9,2.3,5.4h-2.8c-0.1-1.2-0.4-2-0.9-2.8c-0.9-1.2-2.3-1.7-4.3-1.7      c-1.7,0-2.9,0.4-3.6,1.2c-0.7,0.7-1.2,1.6-1.2,2.6c0,1,0.4,1.9,1.3,2.3c0.6,0.3,1.9,0.7,3.9,1.2l2.9,0.7      c1.4,0.3,2.6,0.9,3.3,1.4c1.3,1,2,2.5,2,4.5c0,2.5-0.9,4.2-2.6,5.2c-1.7,1-3.8,1.6-5.9,1.6c-2.6,0-4.8-0.7-6.2-2      c-1.4-1.4-2.2-3.2-2.2-5.6h2.6V214z"/>
				<path class="st2" d="M351.6,199.3h3.5l6.2,10.4l6.2-10.4h3.5l-8.3,13v8.8h-2.9v-8.8L351.6,199.3z"/>
				<path class="st2" d="M378.5,214c0,1.3,0.3,2.2,0.9,3c1,1.4,2.6,2.2,4.9,2.2c1,0,2-0.1,2.9-0.4c1.7-0.6,2.6-1.7,2.6-3.3      c0-1.2-0.3-2-1-2.6c-0.7-0.4-1.9-0.9-3.5-1.3l-2.9-0.7c-1.9-0.4-3.2-0.9-3.9-1.4c-1.3-0.9-2-2.3-2-4.1c0-2,0.7-3.6,2-4.8      c1.3-1.3,3.2-1.9,5.6-1.9c2.2,0,4.1,0.6,5.7,1.6c1.6,1.2,2.3,2.9,2.3,5.4h-2.8c-0.1-1.2-0.4-2-0.9-2.8c-0.9-1.2-2.3-1.7-4.3-1.7      c-1.7,0-2.9,0.4-3.6,1.2c-0.7,0.7-1.2,1.6-1.2,2.6c0,1,0.4,1.9,1.3,2.3c0.6,0.3,1.9,0.7,3.9,1.2l2.9,0.7      c1.5,0.3,2.5,0.9,3.3,1.4c1.3,1,2,2.5,2,4.5c0,2.5-0.9,4.2-2.6,5.2c-1.7,1-3.8,1.6-5.9,1.6c-2.6,0-4.8-0.7-6.2-2      c-1.4-1.4-2.2-3.2-2.2-5.6h2.6V214z"/>
				<path class="st2" d="M415.8,199.3v2.6h-7.4v19.3h-3v-19.3h-7.4v-2.6H415.8z"/>
				<path class="st2" d="M421.8,199.3h15.8v2.6h-12.9v6.7h12v2.5h-12v7.4h13.2v2.6h-16.1V199.3z"/>
				<path class="st2" d="M444.9,199.3h4.2l6.2,18.5l6.2-18.4h4.2v21.9H463v-12.9c0-0.4,0-1.2,0-2.2c0-1,0-2.2,0-3.3l-6.2,18.4h-2.9      l-6.2-18.4v0.7c0,0.6,0,1.3,0,2.5c0,1.2,0,1.9,0,2.5v12.9h-2.8V199.3z"/>
				<path class="st2" d="M475.2,214c0,1.3,0.3,2.2,0.9,3c1,1.4,2.6,2.2,4.9,2.2c1,0,2-0.1,2.9-0.4c1.7-0.6,2.6-1.7,2.6-3.3      c0-1.2-0.3-2-1-2.6c-0.7-0.4-1.9-0.9-3.5-1.3l-2.9-0.7c-1.9-0.4-3.2-0.9-3.9-1.4c-1.3-0.9-2-2.3-2-4.1c0-2,0.7-3.6,2-4.8      c1.3-1.3,3.2-1.9,5.6-1.9c2.2,0,4.1,0.6,5.7,1.6c1.6,1.2,2.3,2.9,2.3,5.4H486c-0.1-1.2-0.4-2-0.9-2.8c-0.9-1.2-2.3-1.7-4.3-1.7      c-1.7,0-2.9,0.4-3.6,1.2c-0.7,0.7-1.2,1.6-1.2,2.6c0,1,0.4,1.9,1.3,2.3c0.6,0.3,1.9,0.7,3.9,1.2l2.9,0.7      c1.4,0.3,2.5,0.9,3.3,1.4c1.3,1,2,2.5,2,4.5c0,2.5-0.9,4.2-2.6,5.2c-1.7,1-3.8,1.6-5.9,1.6c-2.6,0-4.8-0.7-6.2-2      c-1.4-1.4-2.2-3.2-2.2-5.6h2.6V214z"/>
			</g>
		</g>
		<g>
			<g>
				<polygon class="st1" points="609.7,36.1 592.2,36.1 557.6,92.8 592.9,153.9 610.2,153.9 574.8,92.9     "/>
				<path class="st1" d="M94.1,46.6V33.4h94.3v13.2h-39.3v104.7h-15.6V46.6H94.1z"/>
				<path class="st1" d="M248.6,33.4v50.7h62.1V33.4h15.6v117.9h-15.6v-54h-62.1v54h-15.6V33.4H248.6z"/>
				<path class="st1" d="M465.4,142.6c-8,7.5-19.4,11.3-34.3,11.3c-15.2,0-27.1-3.6-35.6-10.9c-8.5-7.2-12.7-18.7-12.7-34.5V33.2      h15.6v75.3c0,10.6,2.8,18.5,8.4,24c5.7,5.5,13.8,8.1,24.3,8.1c10,0,17.7-2.8,22.9-8.1c5.2-5.5,7.8-13.5,7.8-24V33.2h15.6v75.3      C477.5,123.8,473.6,135.1,465.4,142.6z"/>
			</g>
			<g>
				<polygon class="st2" points="65.6,34.7 48.2,34.7 13.5,91.5 48.8,152.6 66,152.6 30.7,91.6     "/>
				<polygon class="st2" points="521.5,36.1 539,36.1 573.7,92.8 538.3,153.9 521.1,153.9 556.4,92.9     "/>
			</g>
		</g>
	</g>
</g>
</svg>