<svg xmlns="http://www.w3.org/2000/svg" xmlns:xlink="http://www.w3.org/1999/xlink" viewBox="0 0 623.62 255.12"><defs><style>.cls-1{fill:none;}.cls-2{fill:#fff;}.cls-3{clip-path:url(#clip-path);}.cls-4{fill:url(#linear-gradient);}.cls-5,.cls-8{fill:#1d1d1b;}.cls-6,.cls-7{fill:#008ed9;}.cls-7,.cls-8{fill-rule:evenodd;}</style><clipPath id="clip-path"><path class="cls-1" d="M69.12,127.36a113.06,113.06,0,1,0,113.06-113A113.06,113.06,0,0,0,69.12,127.36"/></clipPath><linearGradient id="linear-gradient" x1="-5663.18" y1="-1509.1" x2="-5660.29" y2="-1509.1" gradientTransform="translate(119079.52 441541.75) rotate(60) scale(78.02)" gradientUnits="userSpaceOnUse"><stop offset="0" stop-color="#008ed9"/><stop offset="1" stop-color="#126bbb"/></linearGradient></defs><title>welaika</title><g id="BG"><rect class="cls-2" width="623.62" height="255.12"/></g><g id="Logo"><g class="cls-3"><polygon class="cls-4" points="238.73 -83.59 393.18 183.92 125.67 338.37 -28.78 70.86 238.73 -83.59"/></g><path class="cls-5" d="M299.4,167.63c0,10.11,2.45,17.36,7.31,21.83s11.38,6.72,19.47,6.72c2,0,4.17-.1,6.52-.3a28.34,28.34,0,0,0,6.09-1.12,10.64,10.64,0,0,0,.29-2.31v-2.31a49.82,49.82,0,0,0-1.72-12.6,25.74,25.74,0,0,1-2.94.49,27.39,27.39,0,0,1-2.75.15,14.14,14.14,0,0,1-4.7-.64,6,6,0,0,1-3.09-2.31,11,11,0,0,1-1.72-4.66,43.3,43.3,0,0,1-.54-7.89V80.08a66,66,0,0,0-11-.93,66.84,66.84,0,0,0-11.18.93v87.55Z"/><path class="cls-5" d="M376,178.67c-1.17.19-2.5.44-4.12.68a30,30,0,0,1-4.71.4c-1.37,0-3-.1-4.8-.25a16.74,16.74,0,0,1-5.2-1.27A10.31,10.31,0,0,1,353,175c-1.18-1.47-1.72-3.58-1.72-6.28,0-4.12,1.52-7.06,4.52-8.88s7.06-2.74,12.21-2.74c1.13,0,2.45.09,3.92.24s2.85.35,4.12.54v20.8Zm0-35.12c-3.68-.29-7.06-.49-10.1-.49a61.39,61.39,0,0,0-12.61,1.32,36.19,36.19,0,0,0-11.42,4.42,24.65,24.65,0,0,0-8.34,8.19,23.36,23.36,0,0,0-3.24,12.7,28.48,28.48,0,0,0,2.6,12.75,22.08,22.08,0,0,0,7.41,8.49,31.19,31.19,0,0,0,11.52,4.71,72.39,72.39,0,0,0,14.77,1.42,92.79,92.79,0,0,0,17.8-1.57,133.53,133.53,0,0,0,13.39-3.29V145c0-11.52-3.09-20-9.22-25.21s-14.71-7.9-25.6-7.9a90,90,0,0,0-13,1.08,85,85,0,0,0-13.88,3.49,30,30,0,0,0,1.08,8.68,41.46,41.46,0,0,0,3.28,7.7,55.79,55.79,0,0,1,18.15-3.29,46,46,0,0,1,7.16.49,14.3,14.3,0,0,1,5.45,1.82,9.35,9.35,0,0,1,3.48,3.68,13.13,13.13,0,0,1,1.27,6.13v1.91Z"/><path class="cls-5" d="M401.57,195.2a66,66,0,0,0,10.89.93,66.94,66.94,0,0,0,11-.93V113.78H391a36.37,36.37,0,0,0-1,8.34c0,1.37.1,2.79.25,4.31a29,29,0,0,0,.73,4.32h10.55Zm2.5-94.47c2.11.1,4,.15,5.69.15s3.73,0,5.74-.15a39.33,39.33,0,0,0,5.73-.64,48.59,48.59,0,0,0,.64-5.34c.1-1.77.15-3.53.15-5.2s0-3.53-.15-5.3a50.94,50.94,0,0,0-.64-5.3c-1.76-.29-3.72-.54-5.83-.68s-4.07-.25-5.84-.25-3.53.1-5.59.25-4,.39-5.74.68a61.59,61.59,0,0,0-.93,10.55,64.56,64.56,0,0,0,.93,10.54,48.3,48.3,0,0,0,5.84.69"/><path class="cls-5" d="M426.78,195.2a63.56,63.56,0,0,0,11,.93A66.19,66.19,0,0,0,449,195.2V80.08a65.17,65.17,0,0,0-11.19-.93,62.6,62.6,0,0,0-11,.93Zm49,0a77.07,77.07,0,0,0,11.67.93,86,86,0,0,0,12.46-.93l-24.28-43.8,20.79-37.67a69.56,69.56,0,0,0-11.67-.93,80.72,80.72,0,0,0-12.46.93l-20.16,38.75Z"/><path class="cls-5" d="M532.72,178.67c-1.18.19-2.5.44-4.07.68a30,30,0,0,1-4.71.4c-1.37,0-3-.1-4.81-.25a17.16,17.16,0,0,1-5.2-1.27,10.28,10.28,0,0,1-4.16-3.24c-1.18-1.47-1.72-3.58-1.72-6.28,0-4.12,1.52-7.06,4.51-8.88s7.06-2.74,12.21-2.74a39,39,0,0,1,3.93.24c1.47.15,2.84.35,4.07.54v20.8Zm0-35.12c-3.68-.29-7-.49-10.1-.49A61.39,61.39,0,0,0,510,144.38a36.72,36.72,0,0,0-11.43,4.42,24.74,24.74,0,0,0-8.34,8.19,23.44,23.44,0,0,0-3.23,12.7,28.48,28.48,0,0,0,2.6,12.75,22.06,22.06,0,0,0,7.4,8.49,31,31,0,0,0,11.53,4.71,72.29,72.29,0,0,0,14.76,1.42,92.9,92.9,0,0,0,17.81-1.57,133.53,133.53,0,0,0,13.39-3.29V145c0-11.52-3.09-20-9.22-25.21s-14.67-7.9-25.61-7.9a90.69,90.69,0,0,0-12.95,1.08,85,85,0,0,0-13.88,3.49,30.27,30.27,0,0,0,1.13,8.68,39.39,39.39,0,0,0,3.34,7.7,55.75,55.75,0,0,1,18.15-3.29,46.12,46.12,0,0,1,7.16.49,14.24,14.24,0,0,1,5.44,1.82,9.28,9.28,0,0,1,3.48,3.68,13,13,0,0,1,1.28,6.13v1.91Z"/><path class="cls-6" d="M353.35,219.57a24.1,24.1,0,0,1,3.29-.24,13,13,0,0,1,1.37,0,6.21,6.21,0,0,1,1.38.19l.54,14.32,5.93-14.32a16,16,0,0,1,2.7-.24,19.54,19.54,0,0,1,2.89.24l1.13,14.37,3.87-9a17.63,17.63,0,0,0,.94-2.75,12.27,12.27,0,0,0,.24-2,.7.7,0,0,0-.05-.34v-.3a19.13,19.13,0,0,1,3-.24,20.48,20.48,0,0,1,3,.24v.15a8.64,8.64,0,0,1-.44,2.65,25.61,25.61,0,0,1-1.42,3.33l-7.41,14.47a8.08,8.08,0,0,1-1.61.15c-.59.05-1.13.1-1.67.1a16.06,16.06,0,0,1-2.75-.25l-1.18-13.09-5.64,13.09-1.57.15c-.53.05-1.12.1-1.61.1s-.94,0-1.43-.1l-1.42-.15Z"/><path class="cls-7" d="M385,232.37a4.74,4.74,0,0,0,1.27,2.9,4.6,4.6,0,0,0,3,.93,9.71,9.71,0,0,0,2.8-.34,23.78,23.78,0,0,0,2.6-.94,4.14,4.14,0,0,1,.83,2,11.79,11.79,0,0,1,.25,2.4c-.44.2-1,.39-1.57.59s-1.18.29-1.82.39a12.44,12.44,0,0,1-1.91.3,12,12,0,0,1-1.72.09,12.67,12.67,0,0,1-4.16-.59,8.92,8.92,0,0,1-2.9-1.66,7,7,0,0,1-1.67-2.65,11.71,11.71,0,0,1-.54-3.53,14.8,14.8,0,0,1,.84-4.81,13,13,0,0,1,2.35-4.17,11.71,11.71,0,0,1,3.73-3,10.4,10.4,0,0,1,5-1.18,7.91,7.91,0,0,1,2.46.35,5.47,5.47,0,0,1,2,1,5.67,5.67,0,0,1,1.32,1.57,5.3,5.3,0,0,1,.49,2.25,5.68,5.68,0,0,1-.83,3.09,7.61,7.61,0,0,1-2.26,2.26,14.49,14.49,0,0,1-3.19,1.52,21.67,21.67,0,0,1-3.68.83Zm2.25-4.07a10.7,10.7,0,0,0,2.46-.59,6.13,6.13,0,0,0,1.52-.83,2.16,2.16,0,0,0,.73-1,2.3,2.3,0,0,0,.2-1,1.62,1.62,0,0,0-.54-1.23,1.71,1.71,0,0,0-1.32-.49,3.76,3.76,0,0,0-1.92.49,5.66,5.66,0,0,0-1.47,1.18,8,8,0,0,0-1.13,1.77,8.92,8.92,0,0,0-.68,2Z"/><path class="cls-7" d="M400.88,235.71a3.05,3.05,0,0,0,.78.2,9,9,0,0,0,1,0,5.37,5.37,0,0,0,3-.78,7.62,7.62,0,0,0,2.06-2.06,7.75,7.75,0,0,0,1.17-2.8,12.56,12.56,0,0,0,.4-2.94,4.72,4.72,0,0,0-.59-2.4,2.05,2.05,0,0,0-2-1,4,4,0,0,0-3.14,1.57,10.63,10.63,0,0,0-1.92,5.15Zm-2.65-16.92a40.37,40.37,0,0,0,.74-6.33,3.13,3.13,0,0,0-.05-.73,3.4,3.4,0,0,0-.05-.69,7.27,7.27,0,0,1,1.57-.15c.59,0,1.08-.1,1.52-.1a16.24,16.24,0,0,1,2.55.25,4.3,4.3,0,0,1,.2,1.52,21.71,21.71,0,0,1-.49,4.27l-1,5.54c.3-.39.69-.79,1-1.18a8.7,8.7,0,0,1,1.38-1.08,5.75,5.75,0,0,1,1.76-.73,8.14,8.14,0,0,1,2.31-.3A5.07,5.07,0,0,1,414,221a8.64,8.64,0,0,1,1.52,5.54,17.92,17.92,0,0,1-.74,5,12.05,12.05,0,0,1-2.45,4.56,11.9,11.9,0,0,1-4.47,3.29,16.92,16.92,0,0,1-6.91,1.27,18.29,18.29,0,0,1-3.43-.29,15.24,15.24,0,0,1-2.95-.88Z"/><path class="cls-8" d="M434.77,221.63l.1-.39a13.67,13.67,0,0,0,.25-1.86c0-.59,0-1.13,0-1.52a6.37,6.37,0,0,1,2.55-.94,15.74,15.74,0,0,1,2.85-.29,4.3,4.3,0,0,1,.2,1.52,13.6,13.6,0,0,1-.1,1.37c-.05.49-.15,1-.25,1.62l-.1.54h3.19a14.77,14.77,0,0,1-.29,2.21,15.23,15.23,0,0,1-.49,2.11h-3.14l-.84,4.85a12.87,12.87,0,0,1-1.76,4.81,9.89,9.89,0,0,1-2.94,3.09,11.2,11.2,0,0,1-3.88,1.57,19.56,19.56,0,0,1-4.56.49,15.2,15.2,0,0,1-3.73-.44,9.26,9.26,0,0,1-3-1.37,6.52,6.52,0,0,1-2-2.41,7.83,7.83,0,0,1-.74-3.53,9.31,9.31,0,0,1,.54-3.19,10.45,10.45,0,0,1,1.43-2.6,8.49,8.49,0,0,1,2-2,9.68,9.68,0,0,1,2.2-1.22,6,6,0,0,1-1.91-1.92,5.62,5.62,0,0,1-.73-2.89,7.48,7.48,0,0,1,.83-3.53,7.34,7.34,0,0,1,2.21-2.55,9.75,9.75,0,0,1,3.14-1.57,12.37,12.37,0,0,1,3.58-.54,17.83,17.83,0,0,1,2.69.19,9.59,9.59,0,0,1,2.51.69,9.3,9.3,0,0,1-.35,2.11,5.94,5.94,0,0,1-.93,2.11,8.6,8.6,0,0,0-2.11-.54,9.57,9.57,0,0,0-1.72-.15,5.73,5.73,0,0,0-1.61.2,4.47,4.47,0,0,0-1.38.64,2.87,2.87,0,0,0-.93,1.07,3.2,3.2,0,0,0-.34,1.57,3,3,0,0,0,.68,2,3.24,3.24,0,0,0,2.36.73h6.52ZM434,225.9h-5a10,10,0,0,0-2.35.25,5.4,5.4,0,0,0-1.42.49,5.64,5.64,0,0,0-2.31,2.1,6,6,0,0,0-.88,3.29,3.35,3.35,0,0,0,1.18,2.75,4.75,4.75,0,0,0,3.23,1,7.56,7.56,0,0,0,2.9-.49,5.88,5.88,0,0,0,2-1.33,7.26,7.26,0,0,0,1.37-2.06,10.6,10.6,0,0,0,.74-2.64Z"/><path class="cls-5" d="M444.73,219.57a4.32,4.32,0,0,1,1.13-.14,9.27,9.27,0,0,1,1.22-.1,8,8,0,0,1,1.18.1l1.08.14a1.7,1.7,0,0,1,.2.59,4.35,4.35,0,0,1,.19.79,4.17,4.17,0,0,1,.1.78,3.82,3.82,0,0,1,.1.69,5.67,5.67,0,0,1,.83-1.18,6.56,6.56,0,0,1,1.23-1.08,6.07,6.07,0,0,1,1.62-.78,6.25,6.25,0,0,1,2-.3q4.85,0,6.18,3.68a8.45,8.45,0,0,1,2.2-2.55,6,6,0,0,1,3.73-1.13c2.36,0,4.07.64,5.15,2s1.67,3.29,1.67,6v13.09a16.31,16.31,0,0,1-5.69,0V228.55a8.24,8.24,0,0,0-.54-3.29,2.12,2.12,0,0,0-2.16-1.17,4.52,4.52,0,0,0-1.37.19,3,3,0,0,0-1.18.74,3.93,3.93,0,0,0-.88,1.52,8.41,8.41,0,0,0-.34,2.5v11.13a18.94,18.94,0,0,1-2.85.25,18.7,18.7,0,0,1-2.84-.25V228.55a8.24,8.24,0,0,0-.54-3.29,2.13,2.13,0,0,0-2.16-1.17,4.52,4.52,0,0,0-1.37.19,2.69,2.69,0,0,0-1.23.79,3.8,3.8,0,0,0-.83,1.61,9.86,9.86,0,0,0-.3,2.7v10.79a16.31,16.31,0,0,1-5.69,0v-20.6Z"/><path class="cls-8" d="M485.29,240.66a10.78,10.78,0,0,1-4.36-.78,9,9,0,0,1-3.09-2.26,9.89,9.89,0,0,1-1.82-3.43,14.49,14.49,0,0,1-.59-4.22,15.09,15.09,0,0,1,.59-4.27,10.81,10.81,0,0,1,1.82-3.43,8.36,8.36,0,0,1,3.09-2.3,11.76,11.76,0,0,1,8.73,0,7.76,7.76,0,0,1,3.09,2.3,9.25,9.25,0,0,1,1.81,3.43,15.09,15.09,0,0,1,.59,4.27,14.49,14.49,0,0,1-.59,4.22,10,10,0,0,1-1.81,3.43,8.54,8.54,0,0,1-3.09,2.26,10.7,10.7,0,0,1-4.37.78m0-4.31a3.43,3.43,0,0,0,3.19-1.62,9.24,9.24,0,0,0,1-4.81,9.55,9.55,0,0,0-1-4.76,3.38,3.38,0,0,0-3.19-1.66,3.43,3.43,0,0,0-3.19,1.66,12.17,12.17,0,0,0,0,9.57,3.54,3.54,0,0,0,3.19,1.62"/><path class="cls-8" d="M496.42,211a18.3,18.3,0,0,1,2.8-.25,18.94,18.94,0,0,1,2.85.25v10.54a4.19,4.19,0,0,1,2-1.76,6.78,6.78,0,0,1,3.18-.74,8.46,8.46,0,0,1,3.34.64,7,7,0,0,1,2.65,2,9.33,9.33,0,0,1,1.76,3.24,14.06,14.06,0,0,1,.64,4.61,12.69,12.69,0,0,1-.78,4.66,10.09,10.09,0,0,1-2.31,3.48,10.51,10.51,0,0,1-3.73,2.26,15.47,15.47,0,0,1-4.95.73c-.59,0-1.23,0-1.86-.09s-1.28-.15-2-.25-1.32-.2-1.91-.34a14.91,14.91,0,0,1-1.67-.54V211Zm5.65,24.67a3.35,3.35,0,0,0,1,.2,10.48,10.48,0,0,0,1.12,0,5.39,5.39,0,0,0,4.08-1.52,6.66,6.66,0,0,0,1.47-4.75,8.11,8.11,0,0,0-.94-4.37,3.27,3.27,0,0,0-3.09-1.52,3.41,3.41,0,0,0-2.64,1.08,4.53,4.53,0,0,0-1,3.29v7.55Z"/><path class="cls-8" d="M518,223.89h-2.65a6.91,6.91,0,0,1-.2-1.08,8.85,8.85,0,0,1-.05-1.13,9.82,9.82,0,0,1,.25-2.11h8.24v20.6a18.64,18.64,0,0,1-2.8.25,17.44,17.44,0,0,1-2.74-.25V223.89Zm-.84-7.8a17.4,17.4,0,0,1-.24-2.65,18.23,18.23,0,0,1,.24-2.65,7.22,7.22,0,0,1,1.43-.14c.53-.05,1-.1,1.42-.1s.93,0,1.47.1l1.47.14a6.21,6.21,0,0,1,.15,1.38,11.65,11.65,0,0,1,.05,1.32,11.92,11.92,0,0,1-.05,1.33c0,.44-.1.88-.15,1.37a6.65,6.65,0,0,1-1.47.15c-.49,0-1,0-1.42,0s-.89,0-1.43,0-1-.15-1.47-.25"/><path class="cls-5" d="M525.76,211a16,16,0,0,1,5.64,0V232c0,.84,0,1.47.09,2a3.23,3.23,0,0,0,.45,1.18,1.7,1.7,0,0,0,.78.54,4.23,4.23,0,0,0,1.18.15,3.35,3.35,0,0,0,.68-.05c.25-.05.54-.05.74-.1a12.37,12.37,0,0,1,.44,3.19v.59a2.61,2.61,0,0,1-.1.54,6.78,6.78,0,0,1-1.57.29c-.59.05-1.12.1-1.62.1a7.12,7.12,0,0,1-5-1.67c-1.23-1.13-1.81-3-1.81-5.54V211Z"/><path class="cls-8" d="M540.13,231.64a4.45,4.45,0,0,0,1.66,3.48,6.66,6.66,0,0,0,4,1.08,17.44,17.44,0,0,0,2.74-.25,19.22,19.22,0,0,0,2.7-.73,8.65,8.65,0,0,1,.74,1.91,9.47,9.47,0,0,1,.34,2.41,19.74,19.74,0,0,1-7,1.17,13.67,13.67,0,0,1-5-.78,9,9,0,0,1-3.33-2.21,10.53,10.53,0,0,1-1.92-3.38,15.09,15.09,0,0,1-.58-4.27,13.49,13.49,0,0,1,.63-4.27,10.23,10.23,0,0,1,1.87-3.48,8.49,8.49,0,0,1,3.09-2.31,10.12,10.12,0,0,1,4.36-.88,8.78,8.78,0,0,1,3.83.79,7.85,7.85,0,0,1,2.84,2.06,8.51,8.51,0,0,1,1.82,3.14,12.36,12.36,0,0,1,.59,3.87c0,.49,0,1-.1,1.52s0,.88-.1,1.18H540.13Zm8.09-4a4.77,4.77,0,0,0-1.08-3.09,3.25,3.25,0,0,0-2.7-1.18,4,4,0,0,0-3,1.13,5.29,5.29,0,0,0-1.22,3.14Z"/><path class="cls-2" d="M143.23,46.39a8.57,8.57,0,1,0,5.1-11,8.55,8.55,0,0,0-5.1,11"/><path class="cls-2" d="M244.81,136.73a46,46,0,0,0-3,8.63l9.07-1.37a53.47,53.47,0,0,0,10.84-2.7,23.7,23.7,0,0,0,6.62-3.68,10.88,10.88,0,0,0,3.34-4.12,10.54,10.54,0,0,0,.88-4.16,7.18,7.18,0,0,0-2.16-5.4,8.18,8.18,0,0,0-5.83-2.11,17.46,17.46,0,0,0-8.29,2,22.23,22.23,0,0,0-6.57,5.35,32.5,32.5,0,0,0-4.86,7.55m42.28,44.68a87.14,87.14,0,0,1-6.47,13.25c-2.46.68-5,1.27-7.61,1.76s-5.59.93-8.38,1.23a73.76,73.76,0,0,1-7.51.44,56.84,56.84,0,0,1-18.24-2.6,33.61,33.61,0,0,1-12.56-7.41A29.2,29.2,0,0,1,219,176.36a47.23,47.23,0,0,1-2.35-15.3,61,61,0,0,1,1.32-12.65L193.56,196c-2.11.34-4.47.59-7.07.79s-5.1.24-7.4.24A68.81,68.81,0,0,1,167,196L162,138.55,137.35,196c-2.21.25-4.56.44-7,.69s-4.85.34-7.16.34c-2,0-4.07-.1-6.28-.24s-4.26-.45-6.13-.79l-9.27-90.25a96.93,96.93,0,0,1,14.33-1c2,0,4,0,6,.2a31.56,31.56,0,0,1,6,.88l2.45,62.69,26-62.69a64.23,64.23,0,0,1,11.87-1,79.75,79.75,0,0,1,12.75,1l4.91,62.88,16.92-39.29a62.12,62.12,0,0,0,4-12.06,46.66,46.66,0,0,0,1-8.73,13.82,13.82,0,0,0-.1-1.57c-.05-.44-.15-.88-.15-1.23a75.23,75.23,0,0,1,13.15-1,73.83,73.83,0,0,1,13,1v.69a39.13,39.13,0,0,1-1.71,11.72c-.3.88-.39,1.82-.74,2.8a52.35,52.35,0,0,1,15.7-12.31,46.54,46.54,0,0,1,21.73-5,41.56,41.56,0,0,1,10.74,1.38,24.56,24.56,0,0,1,8.63,4.26,20.21,20.21,0,0,1,5.74,7.07,11.27,11.27,0,0,1,.54,1.27,109.79,109.79,0,0,1,1.37,11.38,23.42,23.42,0,0,1-3.53,10.74,32.44,32.44,0,0,1-9.76,9.76,57.24,57.24,0,0,1-13.88,6.57,101.17,101.17,0,0,1-16.14,3.78l-11.72,1.91q1,8.4,5.59,12.51c3,2.75,7.46,4.12,13.29,4.12A46.32,46.32,0,0,0,272,177a105.4,105.4,0,0,0,11.28-3.92,17.64,17.64,0,0,1,3.83,8.33"/></g></svg>