<svg id="Layer_1" data-name="Layer 1" xmlns="http://www.w3.org/2000/svg" viewBox="0 0 448.31 114.61"><defs><style>.cls-1{fill:#364a5e;}.cls-2{fill:#4ab382;}</style></defs><title>vueday</title><path class="cls-1" d="M126.41,32.74h17.66l8.54,25.65,8.65-25.65h17.65L161.53,77.62H143.79Z"/><path class="cls-1" d="M214.78,72.61c-2.6,2.88-7.53,6.13-15.42,6.13-10.41,0-14.87-6.23-14.87-13.94V32.74h16.72v24.9c0,4.56,2.42,6.32,6.51,6.32a8.79,8.79,0,0,0,7.06-3.53V32.74h16.73V77.62H214.78Z"/><path class="cls-1" d="M264.5,31.62c13.19,0,23.32,9.48,23.32,25.28v3.44H257.34c.93,2.88,4.18,5.67,9.85,5.67a17.78,17.78,0,0,0,10.13-3.16l6.88,10.31c-4.46,3.81-12.45,5.58-19.15,5.58-14,0-25-8.83-25-23.61C240.06,42.12,250,31.62,264.5,31.62Zm-7.34,18.13h14.77c-.46-2-2-5.39-7.43-5.39C259.39,44.36,257.71,47.7,257.16,49.75Z"/><path class="cls-1" d="M330.75,70.93a18.86,18.86,0,0,1-15.14,7.81c-11.71,0-20-8.92-20-23.51,0-14.31,8.18-23.61,20-23.61a18.76,18.76,0,0,1,15.14,7.9V15.64h7v62h-7Zm0-25.83a16.83,16.83,0,0,0-13.47-7.25c-9,0-14.4,7.44-14.4,17.38s5.39,17.28,14.4,17.28a16.67,16.67,0,0,0,13.47-7.06Z"/><path class="cls-1" d="M386.51,70.93a18.88,18.88,0,0,1-15.15,7.81c-11.7,0-20-8.92-20-23.51,0-14.31,8.17-23.61,20-23.61a18.78,18.78,0,0,1,15.15,7.9V32.74h7V77.62h-7Zm0-25.83A16.86,16.86,0,0,0,373,37.85c-9,0-14.41,7.44-14.41,17.38S364,72.51,373,72.51a16.7,16.7,0,0,0,13.47-7.06Z"/><path class="cls-1" d="M412.16,89.61c3.07,0,5.11-1,6.69-4.74l3-6.78L403.05,32.74h7.53l15,36.8,14.87-36.8H448l-22.49,54c-2.69,6.5-7.25,9-13.19,9.11a22.68,22.68,0,0,1-5.11-.65l1.11-6.32A10.8,10.8,0,0,0,412.16,89.61Z"/><polygon class="cls-2" points="0 0 0 22.68 58.68 56.69 0 90.99 0 113.39 97.8 56.69 0 0"/><circle class="cls-2" cx="85.04" cy="96.38" r="12.76" transform="translate(-41.65 118.05) rotate(-58.28)"/><path class="cls-1" d="M0,91l59-34.3-59-34v21l22.68,13L0,70Z"/><circle class="cls-1" cx="85.04" cy="17.01" r="12.76"/></svg>