<svg xmlns="http://www.w3.org/2000/svg" xmlns:xlink="http://www.w3.org/1999/xlink" viewBox="0 0 623.62 255.12"><defs><style>.cls-1{fill:none;}.cls-2{fill:#fff;}.cls-3{clip-path:url(#clip-path);}.cls-4{clip-path:url(#clip-path-2);}.cls-5{fill:#1885d6;}.cls-6{fill:#007ec0;}.cls-7{clip-path:url(#clip-path-3);}.cls-8{fill:#cee5f5;opacity:0.6;isolation:isolate;}.cls-9{clip-path:url(#clip-path-5);}.cls-10{clip-path:url(#clip-path-7);}.cls-11{clip-path:url(#clip-path-9);}.cls-12{clip-path:url(#clip-path-11);}.cls-13{clip-path:url(#clip-path-13);}.cls-14{clip-path:url(#clip-path-15);}.cls-15{clip-path:url(#clip-path-17);}</style><clipPath id="clip-path"><rect class="cls-1" x="14.17" y="56.74" width="141.82" height="141.82"/></clipPath><clipPath id="clip-path-2"><rect class="cls-1" x="-18.62" y="23.94" width="714.11" height="207.41"/></clipPath><clipPath id="clip-path-3"><polygon class="cls-1" points="46.08 136.22 72.08 136.22 80.65 144.78 73.56 161.33 46.08 136.22"/></clipPath><clipPath id="clip-path-5"><polygon class="cls-1" points="80.65 94.26 80.65 125.88 59.38 125.88 80.65 94.26"/></clipPath><clipPath id="clip-path-7"><polygon class="cls-1" points="40.47 144.78 80.65 144.78 80.65 161.33 30.13 161.33 40.47 144.78"/></clipPath><clipPath id="clip-path-9"><polygon class="cls-1" points="56.42 119.67 80.65 119.67 80.65 136.22 46.08 136.22 56.42 119.67"/></clipPath><clipPath id="clip-path-11"><polygon class="cls-1" points="124.08 119.38 98.08 119.38 89.51 110.81 96.6 94.26 124.08 119.38"/></clipPath><clipPath id="clip-path-13"><polygon class="cls-1" points="89.51 161.33 89.51 129.72 110.78 129.72 89.51 161.33"/></clipPath><clipPath id="clip-path-15"><polygon class="cls-1" points="129.69 110.81 89.51 110.81 89.51 94.26 140.03 94.26 129.69 110.81"/></clipPath><clipPath id="clip-path-17"><polygon class="cls-1" points="113.74 135.92 89.51 135.92 89.51 119.38 124.08 119.38 113.74 135.92"/></clipPath></defs><title>alicante</title><g id="BG"><rect class="cls-2" width="623.62" height="255.12"/></g><g id="Logo"><g class="cls-3"><g class="cls-4"><rect class="cls-5" x="12.69" y="55.26" width="144.77" height="144.77"/></g></g><path class="cls-6" d="M206,56.62h1l23.82,56.85h-6.3L220.72,104H192.27l-3.72,9.43h-5.88ZM218.59,99l-9.92-25c-.27-.65-.53-1.39-.8-2.16s-.47-1.51-.71-2.16-.44-1.56-.65-2.39c-.27.83-.53,1.62-.74,2.39s-.44,1.39-.71,2.16a18.07,18.07,0,0,1-.79,2.16l-9.93,25Z"/><path class="cls-6" d="M246.87,57.21h6v51H279.4v5.29H246.9V57.21Z"/><path class="cls-6" d="M296,57.21h6v56.26h-6Z"/><path class="cls-6" d="M348.62,114.12a30.51,30.51,0,0,1-11.25-2.1,27.91,27.91,0,0,1-9.19-5.91A28.52,28.52,0,0,1,322,97a31.13,31.13,0,0,1,0-23.34,28,28,0,0,1,6.18-9.1,27.14,27.14,0,0,1,9.19-5.91,29.69,29.69,0,0,1,11.25-2.1q15.08,0,22.34,10.85l-4.55,3.3a20.12,20.12,0,0,0-7.21-6.44,22.15,22.15,0,0,0-10.58-2.39,22.86,22.86,0,0,0-9.1,1.77,21.85,21.85,0,0,0-7.15,4.94A23.23,23.23,0,0,0,327.65,76a26.65,26.65,0,0,0,0,18.68,22.24,22.24,0,0,0,4.72,7.41,21.85,21.85,0,0,0,7.15,4.94,24.65,24.65,0,0,0,20-.71,21.39,21.39,0,0,0,7.68-6.95l4.64,3.22a25.72,25.72,0,0,1-9.63,8.48A29,29,0,0,1,348.62,114.12Z"/><path class="cls-6" d="M405.79,56.62h1l23.81,56.85h-6.29L420.51,104H392.05l-3.72,9.43h-5.88ZM418.38,99l-9.93-25c-.26-.65-.53-1.39-.8-2.16s-.47-1.51-.7-2.16-.45-1.56-.65-2.39c-.27.83-.54,1.62-.74,2.39s-.45,1.39-.71,2.16a18.06,18.06,0,0,1-.8,2.16l-9.93,25Z"/><path class="cls-6" d="M455.7,74.35a13.49,13.49,0,0,1-1.33-1.57c-.45-.62-.86-1.18-1.25-1.74s-.88-1.24-1.32-1.89c.05.77.14,1.54.23,2.3s.12,1.36.18,2.07.09,1.39.09,2v38h-5.62V56.62h1l33.56,39.71c.39.5.83,1,1.27,1.63s.89,1.15,1.27,1.68.89,1.24,1.33,1.89a20.13,20.13,0,0,1-.23-2.3c-.06-.65-.09-1.36-.12-2.07s0-1.39,0-2v-38h5.55v56.85h-1Z"/><path class="cls-6" d="M523.27,62.5H506V57.21h40.54V62.5H529.23v51h-6Z"/><path class="cls-6" d="M562.24,57.21h34.24V62.5H568.17V88.8h25.24v5.29H568.17v14.06h29.46v5.32H562.24Z"/><path class="cls-6" d="M185.5,136.1h36.23v10.16H197.09v18.62h22.42v10.34H197.09v17.13H185.5V136.1Z"/><path class="cls-6" d="M273,192.35H259.6l-9.27-14.24a20.56,20.56,0,0,1-3.31.24h-4v14H231.48V136.1H247c15.72,0,25.14,7.53,25.14,21.27,0,8.78-3.9,14.3-10.84,17.46Zm-26.3-24.08c9.43,0,13.56-3,13.56-10.93s-4.31-11.08-13.56-11.08h-3.63v22Z"/><path class="cls-6" d="M280.37,164.23c0-16.64,12.92-28.87,29.14-28.87s29.13,12.23,29.13,28.87-12.91,28.86-29.13,28.86S280.37,180.86,280.37,164.23Zm46.33,0c0-10.52-6.94-18.53-17.19-18.53s-17.2,8-17.2,18.53,6.94,18.52,17.2,18.52S326.7,174.74,326.7,164.23Z"/><path class="cls-6" d="M365.17,166.21a86.77,86.77,0,0,1-6.71-7.69,98.87,98.87,0,0,1,.83,10.26v23.57H348.45V135.6h1.15L378,162.25a82.93,82.93,0,0,1,6.62,7.68s-.74-6.38-.74-10.25V136.1h10.84v56.75h-1.15Z"/><path class="cls-6" d="M419.3,146.26H403.25V136.1h43.67v10.16h-16v46.09H419.3Z"/><path class="cls-6" d="M455.43,136.1h37.23v10.16H467v17.88h22.57v9.92H467v8.1h26.8v10.19H455.43V136.1Z"/><path class="cls-6" d="M521.29,166.21a86.77,86.77,0,0,1-6.71-7.69,98.87,98.87,0,0,1,.83,10.26v23.57H504.56V135.6h1.16l28.36,26.65a82.93,82.93,0,0,1,6.62,7.68s-.74-6.38-.74-10.25V136.1H550.8v56.75h-1.15Z"/><path class="cls-6" d="M562.56,136.1h17.28c17.29,0,29.61,11.49,29.61,28.13s-12.23,28.12-29.61,28.12H562.56Zm16.72,46.09c12.5,0,18.2-7.45,18.2-18s-5.7-18-18.2-18h-5.14v35.9h5.14Z"/><g class="cls-7"><g class="cls-4"><rect class="cls-8" x="44.6" y="134.74" width="37.52" height="28.07"/></g></g><g class="cls-9"><g class="cls-4"><rect class="cls-8" x="57.9" y="92.79" width="24.23" height="34.57"/></g></g><g class="cls-10"><g class="cls-4"><rect class="cls-2" x="28.65" y="143.31" width="53.48" height="19.5"/></g></g><g class="cls-11"><g class="cls-4"><rect class="cls-2" x="44.6" y="118.19" width="37.52" height="19.5"/></g></g><g class="cls-12"><g class="cls-4"><rect class="cls-8" x="88.03" y="92.79" width="37.52" height="28.07"/></g></g><g class="cls-13"><g class="cls-4"><rect class="cls-8" x="88.03" y="128.24" width="24.23" height="34.57"/></g></g><g class="cls-14"><g class="cls-4"><rect class="cls-2" x="88.03" y="92.79" width="53.48" height="19.5"/></g></g><g class="cls-15"><g class="cls-4"><rect class="cls-2" x="88.03" y="117.9" width="37.52" height="19.5"/></g></g></g></svg>