<svg xmlns="http://www.w3.org/2000/svg" viewBox="0 0 623.62 255.12"><defs><style>.cls-1{fill:#fff;}.cls-2{fill:#070808;}.cls-3{fill:#00acdc;}</style></defs><g id="BG"><rect class="cls-1" width="623.62" height="255.12"/></g><g id="Logo"><path class="cls-2" d="M202.83,140.74H191.41v-6.62h18v22.76L200.84,166H179.16l-8.61-9.11V113l8.61-9.11h21.68l8.61,9.11v10.43h-6.62v-7L197.62,111H182.47l-4.31,4.39v39.07l4.22,4.39h15.15l5.3-5.38Z"/><path class="cls-2" d="M245.88,166v-6.63h5.46l-3.56-10.26H227.09l-3.56,10.26h5.54V166H211.52v-6.63h4.39l14-40.56h-3.48v-6.62h22.11v6.62H245l14,40.56h4.47V166Zm-8.45-46.94-8.11,23.43h16.23Z"/><path class="cls-2" d="M279.73,159.36h5.8V166H266.32v-6.63h5.8V118.8h-5.8v-6.62h16.89l15.65,39.16,15.64-39.16h16.89v6.62H325.6v40.56h5.79V166H312.18v-6.63H318V121.53L302.5,159.36h-7.29l-15.48-37.83Z"/><path class="cls-2" d="M338,112.18h39.41V128.4h-6.63v-9.6H351.42v17h19.37v6.62H351.42v17h19.37v-9.6h6.63V166H338v-6.63h5.8V118.8H338Z"/><path class="cls-2" d="M382.38,112.18h35.27l8.61,9.11v35.59L417.65,166H382.38v-6.63h5.8V118.8h-5.8Zm13.41,46.69h18.55l4.3-4.39V123.69l-4.22-4.39H395.79Z"/><path class="cls-2" d="M429.57,112.18H469V128.4h-6.62v-9.6H443v17h19.37v6.62H443v17h19.37v-9.6H469V166h-39.4v-6.63h5.79V118.8h-5.79Z"/><path class="cls-2" d="M472.28,118.8v-6.62h17.55v6.62h-5.38L499,159.45l14.65-40.65h-5.38v-6.62h17.55v6.62h-4.55l-17,47.19H493.81l-17-47.19Z"/><path class="cls-2" d="M516.73,156.05H525V166h-8.28Z"/><path class="cls-2" d="M556.3,118.8h-5.79v-6.62h18.38v6.62h-5v38.08L555.31,166H539.42l-8.61-9.11V142.31h6.62v11.18l5.22,5.38H552l4.3-4.39Z"/><path class="cls-2" d="M608.62,131.72h-6.87v-7.29l-5-5.13H584.12l-4.31,4.39v8.11l4.06,4.14h17.22l8.36,8.77v12.17L600.84,166H580l-8.61-9.11V146.45h6.87v7.29l5,5.13h14.32l4.22-4.39v-7.37l-4-4.05H580.64l-8.44-8.86V121.29l8.61-9.11H600l8.61,9.11Z"/><path class="cls-3" d="M131.72,118.38A29.18,29.18,0,0,0,96.9,89.68L36.44,105.47a29.2,29.2,0,0,0-15.25,47.36L16.56,166l15.16-5.34A29.22,29.22,0,0,0,72.49,137l6.26-1.55a29.16,29.16,0,0,0,35.42,9.75l15.17,5.34-4.64-13.16A29.1,29.1,0,0,0,131.72,118.38ZM57.31,136.51a2.44,2.44,0,0,1-2.44,2.43H50.42A2.44,2.44,0,0,0,48,141.38v4.46a2.45,2.45,0,0,1-2.43,2.44h-4a2.45,2.45,0,0,1-2.43-2.44v-4.46a2.44,2.44,0,0,0-2.44-2.44H32.22a2.44,2.44,0,0,1-2.44-2.43v-4a2.45,2.45,0,0,1,2.44-2.44h4.45a2.44,2.44,0,0,0,2.44-2.44v-4.45a2.43,2.43,0,0,1,2.43-2.43h4A2.43,2.43,0,0,1,48,123.17v4.45a2.44,2.44,0,0,0,2.44,2.44h4.45a2.45,2.45,0,0,1,2.44,2.44Zm34.61-13a4.81,4.81,0,1,1,4.63-5A4.82,4.82,0,0,1,91.92,123.54Zm10-20.74a4.81,4.81,0,1,1-4.63,5A4.81,4.81,0,0,1,101.9,102.8Zm1.15,31.07a4.81,4.81,0,1,1,4.63-5A4.81,4.81,0,0,1,103.05,133.87Zm10.33-11.13a4.81,4.81,0,1,1,4.63-5A4.82,4.82,0,0,1,113.38,122.74Z"/></g></svg>