<svg xmlns="http://www.w3.org/2000/svg" viewBox="0 0 623.62 255.12"><defs><style>.cls-1{fill:#fff;}.cls-2{fill:#ae313c;}</style></defs><g id="BG"><rect class="cls-1" width="623.62" height="255.12"/></g><g id="Logo"><path class="cls-2" d="M104.87,114.37l1,5.68.22-5.62-.32,0A3.94,3.94,0,0,1,104.87,114.37Z"/><path class="cls-2" d="M129.66,152.49c-2.09-9-2.1-8.17-4.25-17.09-.17-.71-8-6-8.19-6.75-.12-.48,4.37-7.1,4.26-7.58-2-8.21-3.06-15.37-5.34-23.53a4.33,4.33,0,0,0-4.23-3.2h-5l-.52,13.13a3.53,3.53,0,0,1-.28,7l-.22,5.62-1-5.68a3.54,3.54,0,0,1-1.15-6.4l-2.44-13.63H96.21a4.32,4.32,0,0,0-4.14,2.92l-1,2.9,3.21,36.28,7.54,23.73a14.92,14.92,0,0,0,14,10.61c.62,0-7-28.62-6.32-28.7s9.46,27.85,10.09,27.68A14.16,14.16,0,0,0,129.66,152.49ZM98.2,122.64a3.54,3.54,0,1,1,3.4-3.67A3.56,3.56,0,0,1,98.2,122.64Zm8.17,7.59a3.54,3.54,0,1,1,3.41-3.67A3.54,3.54,0,0,1,106.37,130.23Zm7.6-8.18a3.53,3.53,0,1,1,3.4-3.66A3.55,3.55,0,0,1,114,122.05Z"/><path class="cls-2" d="M51.24,97.26a4.33,4.33,0,0,0-4.15-2.92H31.39a4.33,4.33,0,0,0-4.23,3.2q-1.57,5.64-3,11.31c-.12.45,3.45-.11,3.34.34-3.61,14-9.48,29.15-12.79,43.3-1.82,7.75,1.41,15.67,9.07,17.78s15.38-2.52,17.79-10.1l7.53-23.73,3.21-36.28ZM48.55,120a1.79,1.79,0,0,1-1.79,1.79H43.49a1.79,1.79,0,0,0-1.79,1.79v3.27a1.8,1.8,0,0,1-1.79,1.8H37a1.8,1.8,0,0,1-1.79-1.8v-3.27a1.79,1.79,0,0,0-1.79-1.79H30.12a1.8,1.8,0,0,1-1.8-1.79v-3a1.8,1.8,0,0,1,1.8-1.79h3.27a1.79,1.79,0,0,0,1.79-1.79V110.2A1.79,1.79,0,0,1,37,108.41h2.94a1.79,1.79,0,0,1,1.79,1.79v3.27a1.79,1.79,0,0,0,1.79,1.79h3.27a1.79,1.79,0,0,1,1.79,1.79Z"/><path class="cls-2" d="M89.33,100.16H53.73l-.8,9.22,27.73.17,0,1.28H52.8l-1.2,13.74,29.19.17,0,1.32-29.3.13-.89,10.24h42Zm-19.9,16.7-4.36,4.37a1.74,1.74,0,1,1-2.47-2.46L67,114.4a1.74,1.74,0,1,1,2.46,2.46Zm9.91,0L75,121.23a1.74,1.74,0,0,1-2.46-2.46l4.36-4.37a1.74,1.74,0,1,1,2.47,2.46Z"/><path d="M175.91,113.52H172v-4.45h12.34v4.45H181V139.1l-5.78,6.11H164.56l-5.78-6.11v-9.79h4.45v7.51l3.5,3.61H173l2.89-3v-24Z"/><path d="M214.39,122.19h-4.62V117.3l-3.33-3.45h-8.51l-2.89,3v5.45l2.72,2.78h11.57l5.62,5.89v8.18l-5.79,6.11h-14l-5.78-6.11v-7H194V137l3.39,3.45H207l2.84-3v-4.94l-2.67-2.73H195.59l-5.67-6v-8.68l5.79-6.11h12.9l5.78,6.11v7Z"/><path class="cls-2" d="M235.58,103.51v37.25h8.34v4.45h-21.8v-4.45h8.34V108.9l-9.06,4.5-2.17-4.33,11.23-5.56Z"/><path class="cls-2" d="M256.76,126.7v-4.45h8.79l2.67-2.73v-8.28l-2.89-2.95h-8.51l-3.34,3.45v4.89h-4.61v-7l5.78-6.11h12.9l5.79,6.11v11.51l-2.84,3,3.89,4.06v11l-5.78,6.11h-14l-5.79-6.11v-7h4.62V137l3.39,3.45h9.62l2.84-3v-7.73l-3-3.06h-9.51Z"/><path class="cls-2" d="M310.54,145.21H298.75v-4.45h2.84l-8.18-11.4h-5.5v11.4h3.89v4.45H278.9v-4.45h3.89V113.52H278.9v-4.45h12.9v4.45h-3.89v11.4h4.89l8.23-11.4h-2.84v-4.45H310v4.45h-3.22l-9.51,13.23,10.06,14h3.23Z"/><path d="M337.79,128.25h-7.68V123.8h12.13v15.3l-5.79,6.11H321.88l-5.78-6.11V109.62l5.78-6.11h14.57l5.79,6.11v7h-4.45V111.9l-3.5-3.61H324.11l-2.89,2.95v26.24l2.83,3h10.18l3.56-3.61Z"/><path d="M367.82,145.21v-4.45h3.67l-2.39-6.89H355.2l-2.39,6.89h3.72v4.45H344.74v-4.45h2.95l9.4-27.24h-2.34v-4.45H369.6v4.45h-2.39l9.4,27.24h3v4.45Zm-5.67-31.53-5.45,15.74h10.9Z"/><path d="M391.68,140.76h3.89v4.45h-12.9v-4.45h3.89V113.52h-3.89v-4.45H394l10.51,26.3L415,109.07h11.35v4.45h-3.9v27.24h3.9v4.45h-12.9v-4.45h3.89V115.35L407,140.76h-4.89l-10.4-25.41v25.41Z"/><path d="M433.05,109.07h26.47V120h-4.45v-6.45h-13v11.4h13v4.44h-13v11.4h13v-6.45h4.45v10.9H433.05v-4.45h3.89V113.52h-3.89Z"/><path d="M489.55,122.19h-4.62V117.3l-3.33-3.45h-8.51l-2.89,3v5.45l2.72,2.78h11.57l5.62,5.89v8.18l-5.79,6.11h-14l-5.79-6.11v-7h4.62V137l3.39,3.45h9.62l2.84-3v-4.94l-2.67-2.73H470.75l-5.67-6v-8.68l5.79-6.11h12.9l5.78,6.11v7Z"/><path d="M493.44,138.54H499v6.67h-5.56Z"/><path d="M525.14,132.09h4.45v7l-5.78,6.11h-14L504,139.1V115.18l5.78-6.11h14l5.78,6.11v7h-4.45v-4.73l-3.5-3.61H512l-2.9,3v20.68l2.84,3h9.62l3.56-3.61Z"/><path d="M539.82,145.21,534,139.1V115.18l5.78-6.11H555.5l5.79,6.11V139.1l-5.79,6.11Zm2.17-4.78h11.29l2.89-3V116.8l-2.84-3H542.05l-2.9,3v20.68Z"/><path d="M574.75,140.76h3.89v4.45h-12.9v-4.45h3.89V113.52h-3.89v-4.45h11.34l10.51,26.3,10.51-26.3h11.35v4.45h-3.9v27.24h3.9v4.45h-12.9v-4.45h3.89V115.35L590,140.76h-4.89l-10.4-25.41v25.41Z"/></g></svg>