<svg xmlns="http://www.w3.org/2000/svg" viewBox="0 0 623.62 255.12"><defs><style>.cls-1{fill:#fff;}.cls-2{fill:#65b486;}.cls-3{fill:#3a495c;}</style></defs><title>berne</title><g id="BG"><rect class="cls-1" width="623.62" height="255.12"/></g><g id="Logo"><path class="cls-2" d="M416.8,193.27c1.2.46,2,.82,2.85,1.1,5.85,2,11.73,3.89,17.53,6a15,15,0,0,1,4.07,2.59,2.44,2.44,0,0,1,.65,3.41c-.86,1.4-1.79,3.15-3.7,2.58-1.76-.53-2.71.39-3.92,1.14-2.31,1.44-4.56,3-7,4.2-12.08,6.1-24.08,12.4-36.61,17.56-8.5,3.51-17.1,6.74-26.25,8-17.35,2.42-34.27.9-50.48-6.15-3.5-1.52-7-3.13-10.34-4.9-11.89-6.22-24.45-7.72-37.6-5.85-12.76,1.81-25,5.49-37.06,9.88-3.16,1.14-6.37,2.15-9.56,3.2-1.3.44-2.58.45-3.5-.66a3,3,0,0,1-.72-2.11,33.86,33.86,0,0,1,2.85-9c5.61-11.38,12.84-21.72,20.32-31.91L240,190.1a26.92,26.92,0,0,0-3.45-1.16c-7.66-1.49-15.34-2.91-23-4.37-1.51-.28-3-.57-4.52-1a6.57,6.57,0,0,1-2.19-1c-1.3-.94-1.39-1.68-.54-3a5.63,5.63,0,0,1,3.42-2.52c17.28-4.3,34.41-9.17,51.94-12.39A158.75,158.75,0,0,1,287.35,162c6.46-.13,12.89-.14,19.33,0a41.56,41.56,0,0,1,17.05,4.36c5,2.38,9.86,5.06,14.91,7.33A71.5,71.5,0,0,0,350.1,178c6.85,1.74,13.73.71,20.51-.84,13.48-3.11,26.53-7.59,39.48-12.43,7.66-2.87,15.33-5.69,23-8.61a14.46,14.46,0,0,0,3-1.86c1.66-1.15,2.84-1.12,4.42.2,2,1.67,2.42,2.81,1.46,4.66a23.24,23.24,0,0,1-2.12,3.16L419.2,189.76C418.44,190.79,417.77,191.86,416.8,193.27Z"/><path class="cls-3" d="M244.11,104.51c2.82-3.71,5.34-7.13,8-10.46q6-7.53,12.11-15a56.82,56.82,0,0,1,4.19-4.31,4,4,0,0,1,4.41-.86,39.78,39.78,0,0,1,3.95,1.6,8,8,0,0,0,9.14-.94c1.95-1.56,3.84-3.21,5.64-4.94a37.53,37.53,0,0,1,12.86-8.48,15.62,15.62,0,0,0,3.77-1.93q7.92-5.89,15.72-11.95c4.15-3.23,8.17-6.61,12.35-9.79a12,12,0,0,1,4.23-1.93,3,3,0,0,1,2.36,1,29.7,29.7,0,0,1,3.72,5c4.5,7.9,8.9,15.86,13.28,23.81,4,7.22,8,14.47,12,21.87a4.77,4.77,0,0,0,.86-.82c3.06-5.16,6.14-10.31,8.31-15.94.51-1.34,1.23-2.85,2.73-3s2.77,1.08,3.53,2.41c1,1.8,1.91,3.7,2.76,5.6,1.36,3,2.73,6.08,3.94,9.18a4.22,4.22,0,0,0,4.2,2.87c1.75.08,3.48.55,5.22.55,3.95,0,5.77,2.48,7,5.69a36.44,36.44,0,0,1,1.12,3.59,17.19,17.19,0,0,0,4.1,7.08A66.1,66.1,0,0,1,421,111.3c2.87,4,5.66,8.13,9.67,11.08a54.74,54.74,0,0,0,7.2,3.91c.36.19.82.21,1.18.4,1.5.76,1.66,2.12.32,3.17a5.72,5.72,0,0,1-2,.95c-11.23,3.08-21.63,8.28-32.3,12.75a76.63,76.63,0,0,1-12.08,4,324.77,324.77,0,0,1-34.15,6.38c-5.45.68-10.95.95-16.43,1.37-1.91.15-3.84.08-5.74.32a91.44,91.44,0,0,1-18,0c-4.57-.32-9.17-.23-13.75-.32-1.17,0-2.35.06-3.5-.05-7.84-.74-15.65-.07-23.47.33-2.32.12-4.67,0-7,0-3.42.05-6.85-.07-10.25.23a105.32,105.32,0,0,1-16.47-.33,52.69,52.69,0,0,0-9,.13c-5.32.52-10.61,1.32-15.95.62-1.89-.25-3.75-.77-5.62-1.2-3.16-.72-6.29-1.63-9.48-2.2a8.26,8.26,0,0,1-5.56-3.42,2,2,0,0,1,0-2.71,17.58,17.58,0,0,1,2.54-2.34,40,40,0,0,0,4-2.93,91.29,91.29,0,0,0,11.08-12.56,151.51,151.51,0,0,0,12.21-20.66,56.07,56.07,0,0,1,5.17-8.82c2.94-4,5.51-3.72,8,.55C242.42,101.38,243.16,102.78,244.11,104.51ZM363.59,150c-.44-.82-.77-1.38-1.07-2-1.31-2.61-2.65-5.2-3.9-7.83a8.37,8.37,0,0,1-.8-2.62c0-.44.47-.94.72-1.41.45.26,1.12.41,1.31.8,1.47,3,2.83,6,4.24,9.05.26.57.59,1.08,1,1.93.65-1.6,1.51-2.66.83-4.26-1.68-3.91-3.2-7.9-4.71-11.84-.56-1.48-.93-3-1.35-4.56a1.51,1.51,0,0,1,1.26-2.15c3.23,4.72,4.18,10.41,6.74,15.68,1.36-2,2.12-3.59,1.1-5.89-1.48-3.34-2.51-6.89-3.77-10.33-.36-1-.44-1.73,1-2.26l5.17,11.74c1.64-2.15,2.47-3.9,1.47-6.41-1.79-4.56-3.23-9.28-4.88-13.92-.41-1.12-.24-1.7,1.18-2.07,2.36,4,3.68,8.32,5.76,13,.41-2.68.9-4.81.25-6.88-1.31-4.13-2.77-8.21-4.26-12.27-.45-1.22,0-1.63,1.34-2,1.23,2.83,2.42,5.58,3.76,8.65.87-1.86,1.23-3.32.69-5.06-.81-2.62-1.4-5.32-2-8a7.78,7.78,0,0,1-.15-2.72,1.78,1.78,0,0,1,1.1-1.11c.29-.09,1,.36,1.14.72.53,1.22.89,2.51,1.3,3.77.28.9.53,1.8.8,2.71l.65-.1a9.73,9.73,0,0,0,0-1.79c-.56-2.69-1.14-5.39-1.82-8-.22-.87-.25-1.6.66-1.75s.92.61,1,1.35A11.81,11.81,0,0,0,381,97.71c3.36-6.48,2.36-13.15,1.28-20.21-.44.6-.66.84-.82,1.12-4.75,8.24-9.8,16.29-15.08,24.2a75.82,75.82,0,0,0-9,17.83,44.83,44.83,0,0,1-2,4.86,8.76,8.76,0,0,1-5.34,4.62,11.46,11.46,0,0,1-7.36.31,4.82,4.82,0,0,0-5.22,1.34,80.83,80.83,0,0,0-11.94,13.78c-.56.83-1.11,1.67-1.72,2.46s-1.23,1.48-2.29,1.15a2.75,2.75,0,0,1-2.06-2.29,17.5,17.5,0,0,1-.09-2.51c.11-4.67.13-9.33.42-14,.15-2.28-1.15-3.83-2.31-5.28-.74-.93-2.49-1.08-3.82-1.5a37.27,37.27,0,0,1-4.31-1.12c-2.24-1-3-2.62-2.67-5.07.22-1.48.59-2.94.93-4.4.64-2.76.36-3.37-2.37-4.2-1.59-.49-3.25-.72-4.86-1.14-2.82-.74-5.65-1.46-8.43-2.34-2.15-.69-2.47-1.61-1.46-3.56A31.53,31.53,0,0,1,292.2,99c6.24-9.8,13.25-19,20.38-28.18,6.16-7.9,12.56-15.58,18.86-23.37a11.86,11.86,0,0,0,.91-1.49A49.84,49.84,0,0,0,327,50.24c-4.84,4.09-9.62,8.25-14.62,12.14A22,22,0,0,1,305.58,66a22.72,22.72,0,0,0-10.31,6.78c-3.63,4-7.32,8-12.82,9.69.34.64.58,1.07.79,1.53a1.63,1.63,0,0,1-.6,2.19,1.35,1.35,0,0,1-2-.48c-.85-1.16-1.53-2.44-2.51-4.06l-3.56-1.45a12.67,12.67,0,0,0,1.5,3.25c1.12,2.13,2.2,4.28,3.19,6.46a4.59,4.59,0,0,1,0,1.74l-.62.15c-3.76-3.42-5.85-8.08-8.75-12.51l-2,1.8a7.26,7.26,0,0,0,.43,1.37c1.19,2,2.33,4,3.63,6,2.65,3.95,5.38,7.83,8.07,11.76.48.71,1.14,1.43.45,2.61-3.56-2.32-5.54-5.86-7.87-9s-4.44-6.55-6.73-10l-2.38,2.76c.57.82,1.13,1.53,1.6,2.3,2.18,3.55,4.36,7.1,6.46,10.7.53.89,1.24,2.09,0,2.91s-2.07-.31-2.68-1.12c-2.39-3.2-4.68-6.48-7-9.73-.36-.52-.69-1.06-1.18-1.84l-3.57,4.59c5.09,7.18,8.06,12.87,8,15.25-2.72-1.07-2.89-1.28-10.31-12.34l-2.6,3.23c.76,1.18,1.5,2.27,2.19,3.39,1.5,2.41,3,4.81,4.45,7.24a7.05,7.05,0,0,1,.41,1.85,15.4,15.4,0,0,1-5.21-4.41c-1.36-1.66-2.63-3.52-4-5.36l-3.25,3.43c.94,1.58,1.94,3,2.71,4.59s2.23,2.73,1.34,4.91c-3.2-1.13-4.42-4-6.42-6.27-2.74.88-4.41-.67-5.74-2.76a24.1,24.1,0,0,1-1.47-3.17c-.38-.85-.75-1.71-1.32-3-.82,1.51-1.41,2.49-1.91,3.53-1.43,3-2.87,6-4.2,9.08a148.25,148.25,0,0,1-12,21.63,57.6,57.6,0,0,1-6,7.31c-1.87,2.06-3.95,4-6.15,6.1,4.34,1.31,8.44,2.62,12.58,3.77a21.45,21.45,0,0,0,6.11,1.14c3.65-.08,7.29-.57,10.92-1,5.54-.68,11-1.87,16.66-1.61a3.38,3.38,0,0,0,.86-.3c-.47-.55-.86-.95-1.19-1.39-.7-.94-.28-1.73.41-2.44s1.53-.47,2.15.18,1.46,1.61,2.15,2.45c1.68,2.08,2.6,2.32,5.29,1.34-1.71-2.25-3.44-4.49-5.11-6.78a11,11,0,0,1-1.33-2.39,2.58,2.58,0,0,1,1.21-2.77c1-.57,1.56.12,2.18.65a4.67,4.67,0,0,1,.66.75c2.56,3.41,5.14,6.78,7.63,10.23a2.46,2.46,0,0,0,2,1.22c2.41,0,4.83.2,7.23,0,4.41-.31,8.8-1.17,13.19-1.18,11.59,0,23.19-.49,34.78.41,4.56.36,9.16.36,13.74.45C346.36,151.39,354.87,151.73,363.59,150Z"/><path class="cls-3" d="M281.18,136.07c0,1-.59,1.5-1.34,1.25a2.51,2.51,0,0,1-.85-.5c-3.42-3.27-6.87-6.51-9.43-10.55-.61-1-1-1.9-.14-3s1.39-1,2.31-.3a3.92,3.92,0,0,1,.69.72q3.85,5.19,7.68,10.41A15.17,15.17,0,0,1,281.18,136.07Z"/><path class="cls-3" d="M270.26,142.62a6.78,6.78,0,0,1-1.46-.56,24.19,24.19,0,0,1-6.38-7.17,1.64,1.64,0,0,1,0-2.07c.6-.78,1.37-1.15,2.07-.32,2.35,2.77,4.78,5.51,5.89,9.07C270.5,141.83,270.33,142.18,270.26,142.62Z"/><path class="cls-3" d="M286.41,128.85a1.05,1.05,0,0,1-1.6,1.05,17.12,17.12,0,0,1-3.31-2.16,18.11,18.11,0,0,1-2.69-2.91A1.89,1.89,0,0,1,279,122c.88-.79,1.79-.29,2.38.39,1.63,1.86,3.17,3.81,4.72,5.74A2.58,2.58,0,0,1,286.41,128.85Z"/><path class="cls-3" d="M269.54,129.78c2.66,1.43,4.74,5.3,4,7.93a8.5,8.5,0,0,1-2.07-1.15,22.76,22.76,0,0,1-2.73-3.23C267.52,131.57,267.62,131.32,269.54,129.78Z"/><polygon class="cls-3" points="267.03 18.87 247.25 23.29 239.49 47.05 222.81 28.75 202.88 33.2 247.32 81.35 267.03 18.87"/><path class="cls-2" d="M241.63,95.82c.79,1.36,1.53,2.76,2.48,4.48,2.82-3.71,5.34-7.12,8-10.45q6-7.53,12.11-15a53.14,53.14,0,0,1,4.2-4.29,3.9,3.9,0,0,1,2.35-1.11l17.36-55.3-21.06,4.7L247.32,81.36,202.88,33.2,181.22,38,234,94.84C236.78,91.33,239.26,91.71,241.63,95.82Z"/><path class="cls-3" d="M256.53,199.05a1.51,1.51,0,0,0,.52-.42l.53-.56a51.43,51.43,0,0,1,4.22-4,35.71,35.71,0,0,1,4.81-3.4,14.65,14.65,0,0,1,6.82-1.75,5.07,5.07,0,0,1,2.3.52,6.07,6.07,0,0,1,1.82,1.4,6.93,6.93,0,0,1,1.22,2,5.94,5.94,0,0,1,.46,2.24,20.39,20.39,0,0,1-.84,4.78,30.69,30.69,0,0,1-1.73,4.44,20.74,20.74,0,0,1-2.48,4.05c-1,1.21-2,2.38-3,3.49a22.54,22.54,0,0,1-3.14,2.88,40.15,40.15,0,0,1-3.57,2.37,8.38,8.38,0,0,1-1.25.59c-.42.17-.84.32-1.26.46a2.14,2.14,0,0,1-.66.17,1,1,0,0,0-.6.39,5.38,5.38,0,0,1-.7.28c-1.49.09-3,.13-4.43.1a13.3,13.3,0,0,1-4.37-.8,1.71,1.71,0,0,0-1-.07c-.23.09-.39.4-.49.91a19.83,19.83,0,0,1-.67,2.24c-.26.7-.5,1.37-.72,2a4.9,4.9,0,0,1-.52,1,7.5,7.5,0,0,0-.6,1.07.81.81,0,0,1-.67.55,1.75,1.75,0,0,1-.88-.07,1.27,1.27,0,0,1-1.26-.9,9.35,9.35,0,0,1-.14-1.4c0-.42,0-.89.08-1.4a16.59,16.59,0,0,1,.76-2.58q.48-1.24.84-2.52a5,5,0,0,0,.21-.76,1.44,1.44,0,0,0-.07-.77.8.8,0,0,1-.07-.84.82.82,0,0,1,.56-.42,2.4,2.4,0,0,0,.8-.72,9.51,9.51,0,0,0,.53-.94c.32-.7.65-1.36,1-2a13.28,13.28,0,0,0,.83-2c.52-1.49,1-2.94,1.51-4.37l1.49-4.38c.48-1.31.93-2.59,1.36-3.84s.87-2.56,1.3-3.92c.6-1.76,1.22-3.52,1.84-5.27s1.28-3.48,1.93-5.2q1.4-3.78,2.76-7.41c.9-2.42,1.85-4.89,2.83-7.4.27-.66.58-1.31.91-2a15.7,15.7,0,0,0,.83-2,1.31,1.31,0,0,1,.6-.9.93.93,0,0,1,.94-.07,1.69,1.69,0,0,1,1,.59,1.15,1.15,0,0,1,0,1.22c-.19.84-.4,1.66-.63,2.45a13.75,13.75,0,0,1-.91,2.3q-1.19,2.65-2.15,5.31t-2,5.45q-1.2,3.15-2.31,6.18c-.74,2-1.46,4.06-2.15,6.11-.37,1.07-.75,2.16-1.12,3.28s-.74,2.21-1.12,3.28c0,.14-.09.3-.13.46a.48.48,0,0,0,.06.45l-.14.21c0,.05,0,.08,0,.1s.06,0,.11,0S256.44,199.24,256.53,199.05Zm3,16.55a9.55,9.55,0,0,0,2.76-1c.87-.47,1.74-1,2.62-1.54a27.83,27.83,0,0,0,4.51-3.88,38.55,38.55,0,0,0,3.67-4.58,10.84,10.84,0,0,0,.69-1.36c.19-.44.4-.89.63-1.36a7.33,7.33,0,0,0,1.12-2.69c.19-1,.38-1.94.56-3a1.07,1.07,0,0,0,.07-.66,2.15,2.15,0,0,1,0-.8,2.73,2.73,0,0,0-.94-2.16,2.37,2.37,0,0,0-2.13-.77,13.3,13.3,0,0,0-4.13.91,30.52,30.52,0,0,0-4.12,2.62,43.06,43.06,0,0,0-3.7,3.18c-1.4,1.49-2.71,3-3.95,4.64s-2.4,3.29-3.52,5.07a16.8,16.8,0,0,0-1.26,3c-.33,1.05-.68,2.08-1,3.11-.09.28-.08.47,0,.59a1.42,1.42,0,0,0,.53.31,29.18,29.18,0,0,0,3.7.63A10.32,10.32,0,0,0,259.53,215.6Z"/><path class="cls-3" d="M284.47,210.37a7.87,7.87,0,0,0,.49,3.84,4.64,4.64,0,0,0,1.12,1.82,6.13,6.13,0,0,0,1.71,1.22,6.62,6.62,0,0,0,2,.59,6.91,6.91,0,0,0,2,0,12.12,12.12,0,0,0,4.05-1.36c1.21-.68,2.42-1.43,3.63-2.27a28.77,28.77,0,0,0,3-2.58c1-.94,1.88-1.87,2.76-2.8a23.3,23.3,0,0,0,1.75-2c.51-.65,1-1.32,1.53-2,.8-1.07,1.61-2.15,2.45-3.23s1.65-2.21,2.44-3.39a3.46,3.46,0,0,1,.32-.52,3.5,3.5,0,0,0,.31-.53,2.39,2.39,0,0,1,.77-1,1.63,1.63,0,0,1,2.24-.14,1.59,1.59,0,0,1,.48,1.12,1.85,1.85,0,0,1-.35,1.33l-1.92,2.69c-.63.86-1.27,1.74-1.93,2.62l-1.85,2.44a28.4,28.4,0,0,1-2.06,2.45q-1.59,1.88-3.31,3.66a30.11,30.11,0,0,1-3.73,3.32c-.94.7-1.88,1.39-2.83,2.06a20.25,20.25,0,0,1-3,1.8,18.89,18.89,0,0,1-3.81,1.25,9.87,9.87,0,0,1-8.45-2,8.25,8.25,0,0,1-2.62-4.19,19.37,19.37,0,0,1-.63-2.79,5.66,5.66,0,0,1,.36-2.88,22,22,0,0,1,2.23-7,46.14,46.14,0,0,1,3.92-6.22q.9-1.18,1.92-2.34a29.46,29.46,0,0,1,2.13-2.2,21.74,21.74,0,0,1,4-2.86,18.43,18.43,0,0,1,4.65-1.71,6.06,6.06,0,0,1,3.68.49,5.87,5.87,0,0,1,2.76,2.45,11.62,11.62,0,0,1,.63,2.16,4.56,4.56,0,0,1-.14,2.23,15.8,15.8,0,0,1-6.65,9.46,11,11,0,0,1-2.65,1.54l-2.8,1.12a9.86,9.86,0,0,1-3.14.45,13.92,13.92,0,0,1-3.15-.45,4.49,4.49,0,0,1-2.3-1.54q-.36-.42-.45-.39c-.07,0-.18.22-.32.6-.37.93-.71,1.86-1,2.79A6.26,6.26,0,0,0,284.47,210.37Zm7.27-7.18a7.38,7.38,0,0,0,2.48-.14,12.33,12.33,0,0,0,2.34-.84,10.1,10.1,0,0,0,2.44-1.47c.75-.6,1.47-1.23,2.16-1.88a14,14,0,0,0,1.88-2.52,10.07,10.07,0,0,0,1.12-2.79,3.61,3.61,0,0,0-.07-2.34,2.32,2.32,0,0,0-1.53-1.44,4.1,4.1,0,0,0-2.59,0,10.28,10.28,0,0,0-4.05,1.8,42.08,42.08,0,0,0-3.42,2.83,14.25,14.25,0,0,0-1.47,1.54c-.47.55-.91,1.14-1.33,1.74s-.76,1-1.15,1.54a9.22,9.22,0,0,0-1,1.67,1.57,1.57,0,0,0-.1.28c0,.1,0,.19.18.28a16.59,16.59,0,0,1,1.92,1.3,2.48,2.48,0,0,0,2.2.42Z"/><path class="cls-3" d="M321.5,189.34a2.09,2.09,0,0,1-.36,1.26,7.24,7.24,0,0,0-.49,1,9.77,9.77,0,0,0-.36,1.08,13.73,13.73,0,0,1-.91,2.41c-.37.77-.77,1.55-1.18,2.34q-.15.36,0,.42s.1,0,.17,0l.17-.14,2-1.92a22.63,22.63,0,0,1,2.1-1.8q2-1.53,4.08-3a15.1,15.1,0,0,1,4.65-2.13,5.56,5.56,0,0,1,4,.42,5.11,5.11,0,0,1,2.69,3,1.26,1.26,0,0,1-.36,1.16,1.21,1.21,0,0,1-1.19.38,3.37,3.37,0,0,0-.77-.21,1.21,1.21,0,0,1-.72-.36,3.64,3.64,0,0,0-2.72-1.05,6.75,6.75,0,0,0-2.65.91,32.05,32.05,0,0,0-5.45,3.77,44.76,44.76,0,0,0-4.67,4.67,59.84,59.84,0,0,0-6.77,9.71,26.07,26.07,0,0,0-1.68,3.59c-.47,1.23-.91,2.48-1.33,3.74s-.92,2.4-1.33,3.59-.87,2.36-1.39,3.52a9.33,9.33,0,0,1-.72,1,1,1,0,0,1-.94.38,2.17,2.17,0,0,1-1.82-1.54,2.8,2.8,0,0,1-.07-.76,15,15,0,0,1,.77-2.52l1-2.37,3.14-8.38q1.25-3.63,2.72-7.13c.7-1.67,1.43-3.32,2.2-4.92s1.55-3.23,2.34-4.86q.63-1.4,1.26-2.76a22.58,22.58,0,0,1,1.47-2.69,3.53,3.53,0,0,1,.63-.91c.2-.16.4-.34.59-.52s.43-.18.8,0a3.13,3.13,0,0,1,.91.6A1.67,1.67,0,0,1,321.5,189.34Z"/><path class="cls-3" d="M344.06,195.5q1.33-1.6,2.58-3.18a23.76,23.76,0,0,1,2.88-3q1.61-1.46,3.35-2.76a12.61,12.61,0,0,1,3.91-1.92,7.27,7.27,0,0,1,1.85-.28,5.9,5.9,0,0,1,1.86.36,3.24,3.24,0,0,1,1.43,1.05,5.85,5.85,0,0,1,.81,1.47,16.32,16.32,0,0,1,.76,3.32,9.55,9.55,0,0,1-.21,3.45,11.34,11.34,0,0,0-.17,1.54,11.2,11.2,0,0,1-.18,1.53c-.24,1.55-.48,3.06-.71,4.55s-.56,3-1,4.47a14.47,14.47,0,0,0-.21,1.61c0,.55-.12,1.11-.21,1.67l-.28,2a7.08,7.08,0,0,0,0,1.95v.84a1.4,1.4,0,0,0,.56,1.47.71.71,0,0,0,.72,0,2.9,2.9,0,0,0,.66-.49,14,14,0,0,1,1.61-1.26,3.82,3.82,0,0,0,1.33-1.54,39.83,39.83,0,0,0,3.81-4.77q1.75-2.5,3.64-4.89c.84-1.07,1.63-2.14,2.37-3.23s1.52-2.2,2.31-3.31a2.12,2.12,0,0,1,1.95-1,1.32,1.32,0,0,1,.81.49,1.08,1.08,0,0,1,.1.91,2.11,2.11,0,0,0-.1.45,1.18,1.18,0,0,1-.18.45q-1.19,1.81-2.44,3.67l-2.51,3.67c-.7,1-1.41,2-2.13,2.93s-1.46,1.94-2.2,2.87-1.58,2-2.34,3a19,19,0,0,1-2.62,2.76c-.28.28-.59.56-.91.84s-.66.54-1,.77a4.47,4.47,0,0,1-1.79.7,6.86,6.86,0,0,1-1.92,0,2.74,2.74,0,0,1-2-1.4c-.23-.36-.45-.74-.66-1.12a2.26,2.26,0,0,1-.25-1.33,1.35,1.35,0,0,0-.17-.9,1.25,1.25,0,0,1-.11-1c.24-1.35.42-2.68.53-4a24.88,24.88,0,0,1,.66-3.92c.19-.79.36-1.57.49-2.34s.25-1.54.36-2.34a22.41,22.41,0,0,1,.41-2.69,23,23,0,0,0,.42-2.62c.1-1.07.17-2.14.21-3.23a9.82,9.82,0,0,0-.41-3.23c-.19-.56-.36-.87-.49-.94a3.67,3.67,0,0,0-1-.17,4.06,4.06,0,0,0-1.61.36,15.82,15.82,0,0,0-2.48,1.46,22.29,22.29,0,0,0-2.24,1.75,51.18,51.18,0,0,0-4.52,5.13,55.31,55.31,0,0,0-3.81,5.69q-1.26,2.16-2.34,4.4t-2.26,4.48a1.51,1.51,0,0,0-.2.45,1.92,1.92,0,0,1-.21.46,1.67,1.67,0,0,1-1.12.9,1.72,1.72,0,0,1-1.4-.36,1,1,0,0,1-.49-.84,5.45,5.45,0,0,0,0-1.07,2.64,2.64,0,0,1,.17-1.08q1-2.66,1.82-5.38t1.81-5.39a21,21,0,0,0,1.05-3.07,11.73,11.73,0,0,1,1.44-3.23,13.5,13.5,0,0,0,1.5-3.22c0-.14.11-.3.17-.48a.74.74,0,0,1,.46-.42,4.42,4.42,0,0,1,.94-.28.89.89,0,0,1,.72.2,1.82,1.82,0,0,1,.63.72,1.4,1.4,0,0,1-.15,1.06c-.28.72-.57,1.4-.87,2.1s-.62,1.39-.94,2.09c-.1.24-.2.48-.32.72a1.19,1.19,0,0,0,0,.87.45.45,0,0,0-.28.07c-.09.19-.05.24.14.14a.19.19,0,0,1,0-.1S344.06,195.58,344.06,195.5Z"/><path class="cls-3" d="M374.94,210.37a7.87,7.87,0,0,0,.49,3.84,4.5,4.5,0,0,0,1.11,1.82,6.33,6.33,0,0,0,1.72,1.22,6.53,6.53,0,0,0,2,.59,6.84,6.84,0,0,0,2,0,12.17,12.17,0,0,0,4.06-1.36c1.21-.68,2.42-1.43,3.63-2.27a29.82,29.82,0,0,0,3-2.58c.95-.94,1.87-1.87,2.75-2.8a20.25,20.25,0,0,0,1.75-2c.52-.65,1-1.32,1.54-2,.79-1.07,1.61-2.15,2.44-3.23s1.66-2.21,2.45-3.39a3.4,3.4,0,0,1,.31-.52,3.55,3.55,0,0,0,.32-.53,2.31,2.31,0,0,1,.77-1,1.54,1.54,0,0,1,2.72,1,1.81,1.81,0,0,1-.36,1.33c-.65.93-1.29,1.83-1.92,2.69l-1.92,2.62c-.61.79-1.22,1.6-1.85,2.44a28.4,28.4,0,0,1-2.06,2.45q-1.6,1.88-3.31,3.66a30.94,30.94,0,0,1-3.74,3.32c-.93.7-1.87,1.39-2.83,2.06a20.15,20.15,0,0,1-3,1.8,19.09,19.09,0,0,1-3.81,1.25,9.9,9.9,0,0,1-8.46-2,8.31,8.31,0,0,1-2.62-4.19,20.77,20.77,0,0,1-.62-2.79,5.65,5.65,0,0,1,.35-2.88,22,22,0,0,1,2.24-7,46.44,46.44,0,0,1,3.91-6.22q.92-1.18,1.92-2.34c.68-.77,1.39-1.5,2.14-2.2a21.74,21.74,0,0,1,4-2.86,18.29,18.29,0,0,1,4.65-1.71,6.07,6.07,0,0,1,3.66.49,5.87,5.87,0,0,1,2.76,2.45,11.62,11.62,0,0,1,.63,2.16,4.56,4.56,0,0,1-.14,2.23A15.82,15.82,0,0,1,391,203.4a11,11,0,0,1-2.66,1.54l-2.79,1.12a10.17,10.17,0,0,1-3.15.45,13.91,13.91,0,0,1-3.14-.45,4.52,4.52,0,0,1-2.31-1.54q-.34-.42-.45-.39c-.07,0-.17.22-.31.6-.38.93-.71,1.86-1,2.79A6.25,6.25,0,0,0,374.94,210.37Zm7.26-7.18a7.5,7.5,0,0,0,2.5-.15,12.09,12.09,0,0,0,2.34-.84,9.79,9.79,0,0,0,2.44-1.47c.75-.6,1.47-1.23,2.16-1.88a14,14,0,0,0,1.89-2.51,10.56,10.56,0,0,0,1.11-2.8,3.61,3.61,0,0,0-.07-2.34,2.27,2.27,0,0,0-1.54-1.43,4.07,4.07,0,0,0-2.58,0,10.34,10.34,0,0,0-4.05,1.79,42.08,42.08,0,0,0-3.42,2.83,14.25,14.25,0,0,0-1.47,1.54c-.47.56-.91,1.14-1.33,1.74s-.76,1-1.15,1.54a8.42,8.42,0,0,0-1,1.68,1.36,1.36,0,0,0-.11.28c0,.09,0,.18.17.28a15.44,15.44,0,0,1,1.93,1.29,2.49,2.49,0,0,0,2.19.43Z"/></g></svg>