<?xml version="1.0" encoding="utf-8"?>
<!-- Generator: Adobe Illustrator 16.0.3, SVG Export Plug-In . SVG Version: 6.00 Build 0)  -->
<!DOCTYPE svg PUBLIC "-//W3C//DTD SVG 1.1//EN" "http://www.w3.org/Graphics/SVG/1.1/DTD/svg11.dtd">
<svg version="1.1" xmlns="http://www.w3.org/2000/svg" xmlns:xlink="http://www.w3.org/1999/xlink" x="0px" y="0px" width="623.6px"
	 height="255.1px" viewBox="0 0 623.6 255.1" style="enable-background:new 0 0 623.6 255.1;" xml:space="preserve">
<style type="text/css">
<![CDATA[
	.st0{fill:#FFFFFF;}
	.st1{fill:#34495F;}
	.st2{fill:#3AB982;}
]]>
</style>
<g id="BG">
	<rect class="st0" width="623.6" height="255.1"/>
</g>
<g id="Logo">
	<g id="logo">
		<g id="Group-2" transform="translate(310.000000, 257.000000)">
			<polygon id="Path-3-Copy" class="st0" points="6.8,-205.7 -99.1,-205.7 -94.1,-201.3 -94.1,-194.8 -99,-192.5 -81.7,-162.4 
				-81.5,-65.4 -83.5,-62 -85.8,-61.8 -85.8,-57.7 -89.7,-55.2 -89.7,-49.3 -97.3,-47.4 6.3,-47.4 			"/>
			<polygon id="Path-3-Copy-2" class="st0" points="-4.5,-205.7 101.5,-205.7 96.4,-201.3 96.4,-194.8 101.3,-192.5 84,-162.4 
				83.9,-65.4 85.9,-62 88.3,-61.4 89.4,-57.8 92,-55.2 92,-49.3 99.7,-47.4 -3.9,-47.4 			"/>
			<g id="Group" transform="translate(100.922527, 548.047914)">
				<path id="Combined-Shape" class="st1" d="M-158.2-610h2.3l0,4.4l-30.9,0l0-4.4h2.3v-3.2h1.9v-97.1l4.5,7.8l-1.3-2.2l-0.4,91.5
					h2.3l0.4-87.5l17.1,29.7v57.8h1.9L-158.2-610z M-165.7-613.2h2.3v-63.5l-2.3-4V-613.2z M-170.2-613.2l-0.1-75.5l-2.3-4l0.1,79.5
					L-170.2-613.2z"/>
				<path id="Combined-Shape_1_" class="st1" d="M-129.4-618.3v5.1l2.3,0v-1.1l1,1.7l-20.6,0v-35.6l3.2,5.5l-0.4,29.5l2.3,0
					l0.4-25.6l4.6,7.9l0.1,17.6l2.4,0l-0.1-13.6L-129.4-618.3z"/>
				<polygon id="Rectangle" class="st1" points="-148.8,-613.2 -126.4,-613.3 -124.2,-609.4 -148.8,-609.4 				"/>
				<polygon id="Rectangle_1_" class="st1" points="-151.1,-610 -124.5,-610 -122,-605.6 -151.1,-605.6 				"/>
			</g>
			
				<g id="Group-Copy" transform="translate(1101.612443, 913.733706) scale(-1, 1) translate(-1101.612443, -913.733706) translate(874.414987, 548.047914)">
				<path id="Combined-Shape_2_" class="st1" d="M1267.7-610h2.3l0,4.4l-30.9,0l0-4.4h2.3v-3.2h1.9v-97.1l4.5,7.8l-1.3-2.2
					l-0.4,91.5h2.3l0.4-87.5l17.1,29.7v57.8h1.9V-610z M1260.3-613.2h2.3v-63.5l-2.3-4V-613.2z M1255.8-613.2l-0.1-75.5l-2.3-4
					l0.1,79.5L1255.8-613.2z"/>
				<path id="Combined-Shape_3_" class="st1" d="M1296.6-618.3v5.1l2.3,0v-1.1l1,1.7l-20.6,0v-35.6l3.2,5.5l-0.4,29.5l2.3,0
					l0.4-25.6l4.6,7.9l0.1,17.6l2.4,0l-0.1-13.6L1296.6-618.3z"/>
				<polygon id="Rectangle_2_" class="st1" points="1277.1,-613.2 1299.5,-613.3 1301.7,-609.4 1277.1,-609.4 				"/>
				<polygon id="Rectangle_3_" class="st1" points="1274.8,-610 1301.4,-610 1303.9,-605.6 1274.8,-605.6 				"/>
			</g>
			<polygon id="Rectangle_4_" class="st1" points="-83.7,-186.9 -57.3,-186.9 -57.3,-183.1 -83.7,-183.1 			"/>
			<polygon id="Rectangle_5_" class="st1" points="86,-183.1 59.6,-183.1 59.6,-186.9 86,-186.9 			"/>
			<polygon id="Rectangle_6_" class="st2" points="-89.8,-55.1 -19.4,-55.1 -15.9,-49.2 -89.8,-49.2 			"/>
			<polygon id="Rectangle-Copy-5" class="st2" points="92,-55.1 23.5,-55.1 20.1,-49.2 92,-49.2 			"/>
			<polygon id="Rectangle_7_" class="st1" points="-94,-201 96.6,-201 96.6,-194.6 -94,-194.6 			"/>
			<polyline id="Fill-5" class="st2" points="-99.1,-205.5 1.2,-240.8 101.5,-205.5 -99.1,-205.5 			"/>
			<path id="Fill-8" class="st1" d="M0.8-234.3c0.2-0.1,0.5-0.1,0.7,0l62.8,22.6H-62L0.8-234.3z"/>
			<polygon id="Rectangle_8_" class="st1" points="19.1,-47.4 99.6,-47.4 99.6,-37.5 13.4,-37.5 			"/>
			<polygon id="Rectangle-Copy-6" class="st1" points="-97.3,-47.4 -14.9,-47.4 -9.3,-37.5 -97.3,-37.5 			"/>
			<polygon id="Path-3" class="st0" points="1.8,-18.1 104.2,-194.7 -100.6,-194.7 			"/>
			<polygon id="Path-2" class="st2" points="-90.7,-188.6 -53.7,-188.6 1.8,-93.2 57.4,-188.6 94.3,-188.6 1.8,-29.4 			"/>
			<polygon id="Path" class="st1" points="-19.2,-188.6 2.2,-152.2 23.5,-188.6 57.7,-188.6 2,-93.1 -53.4,-188.6 			"/>
		</g>
	</g>
</g>
</svg>
