<svg xmlns="http://www.w3.org/2000/svg" viewBox="0 0 623.62 255.12"><defs><style>.cls-1{fill:#fff;}.cls-2{fill:#42b782;}.cls-3{fill:#35495e;}</style></defs><title>vuejs-vienna</title><g id="BG"><rect class="cls-1" width="623.62" height="255.12"/></g><g id="Logo"><path d="M120.28,100.62H223.74c1,0,2.1,0,3.16,0l5.11,8.64c-1.06,0-2.11,0-3.17,0H129.09v58.18H263.44c.67,0,1.34,0,2-.06l60.18.06c10.85,0,21.69,0,32.54-.06.48,0,1,.06,1.43.06H493c.54,0,1.09-.08,1.59-.12v-58H448.92l-57.31-.05,5.11-8.64q26.29,0,52.59,0h54v75.46H356c-1.14,0-2.29.08-3.44.12-.67,0-1.33-.12-2-.12H273c-.67,0-1.33.08-2,.12-1.15,0-2.29-.12-3.44-.12H120.28Z"/><path class="cls-2" d="M271,176.2c.67,0,1.33-.12,2-.12H350.6c.67,0,1.33.08,2,.12-3.43,6.1-6.83,12.21-10.31,18.27q-14.31,25-28.68,49.86c-.52.91-1.11,1.77-1.86,3-2.64-4.57-5.13-8.87-7.61-13.18q-15.79-27.42-31.58-54.83C272,178.28,271.53,177.23,271,176.2Z"/><path class="cls-2" d="M232,109.21l-5.11-8.64c-.47-1-.86-2.12-1.42-3.09Q200.54,54.13,175.57,10.8c-.46-.8-.84-1.64-1.43-2.81h55q41.23,71.63,82.63,143.56l4.26-6.89,2,5.35h5.82c2.92-8.36,5.79-16.61,8.75-25.08l-5-.22c1.38-2.51,2.72-5,4.14-7.52q15.84-27.63,31.71-55.25Q379,35,394.52,8h54.91c-.47,1-.73,1.68-1.1,2.31Q423.4,53.65,398.45,97c-.66,1.14-1.16,2.38-1.73,3.58l-5.11,8.64c-2.19,3.67-4.41,7.32-6.54,11-.85,1.46-1.5,3-2.24,4.55h-18V150l2.73.25c-.43.86-.82,1.72-1.29,2.56q-4,7.28-8.08,14.54c-10.85,0-21.69.06-32.54.06l-60.18-.06c-1.16-2.17-2.3-4.36-3.48-6.51-2.75-5-5.53-10-8.29-15V125h-5v12.49c-1.71-2.86-3.42-5.71-5.11-8.58Q237.78,119.07,232,109.21Zm55.52,23c-.07-3.31-1.45-5.67-4.34-7a12.65,12.65,0,0,0-9.81-.23,6.44,6.44,0,0,0-4.55,6,6.7,6.7,0,0,0,4,6.74,24.41,24.41,0,0,0,4.06,1.43A24.11,24.11,0,0,1,281,140.4c.89.46,2.12,1.58,2,2.31a3.89,3.89,0,0,1-2,2.76,9.58,9.58,0,0,1-4.44.36c-2.45-.24-3.22-2.39-4.09-4.41l-4.57.74c.72,5,2.88,7.67,7.3,8.28a22.55,22.55,0,0,0,7.93-.47,7.15,7.15,0,0,0,5.2-6.85,6.92,6.92,0,0,0-4.3-7.14,40.11,40.11,0,0,0-4.34-1.44,45.39,45.39,0,0,1-4.6-1.59,2.25,2.25,0,0,1-1.19-1.7,2.93,2.93,0,0,1,1.43-1.85c2.88-1.46,5.36-.47,7.51,2.76Zm57.65-7.24V150H350V124.92Z"/><path class="cls-3" d="M316,144.66l-4.26,6.89Q270.24,79.46,229.1,8c3.45,0,6.9-.12,10.35-.12,12.66,0,25.32,0,38,0,1.77,0,2.88.33,3.86,2.07,6.92,12.23,14,24.37,21,36.54l9.51,16.42,7.5-13Q330.94,29.8,342.52,9.68a2.87,2.87,0,0,1,2.82-1.85c16.1.06,32.21,0,48.32,0a6.32,6.32,0,0,1,.86.11q-15.56,27-31.09,54-15.89,27.61-31.71,55.25c-1.42,2.48-2.76,5-4.14,7.52L326,127.64,325.5,129h0a20.44,20.44,0,0,0-1.77,2c-1.55,2.36-3,4.77-4.52,7.16-1.5-4.41-3-8.82-4.45-13.14h-5.48Z"/><path d="M287.53,132.16h-4.66c-2.15-3.23-4.63-4.22-7.51-2.76a2.93,2.93,0,0,0-1.43,1.85,2.25,2.25,0,0,0,1.19,1.7,45.39,45.39,0,0,0,4.6,1.59,40.11,40.11,0,0,1,4.34,1.44,6.92,6.92,0,0,1,4.3,7.14,7.15,7.15,0,0,1-5.2,6.85,22.55,22.55,0,0,1-7.93.47c-4.42-.61-6.58-3.3-7.3-8.28l4.57-.74c.87,2,1.64,4.17,4.09,4.41a9.58,9.58,0,0,0,4.44-.36,3.89,3.89,0,0,0,2-2.76c.07-.73-1.16-1.85-2-2.31a24.11,24.11,0,0,0-4.11-1.22,24.41,24.41,0,0,1-4.06-1.43,6.7,6.7,0,0,1-4-6.74,6.44,6.44,0,0,1,4.55-6,12.65,12.65,0,0,1,9.81.23C286.08,126.49,287.46,128.85,287.53,132.16Z"/><path d="M382.83,124.78c.3,1.23.59,2.46.94,3.94l-3.72.19H370v5.63h12.4v4.18H369.62c.24,2.56.47,4.91.69,7.27h13.4v4.28H367.54l-2.73-.25V124.78Z"/><path d="M326,127.64l1.57-2.93,5,.22c-3,8.47-5.83,16.72-8.75,25.08H318c-.68-1.79-1.35-3.57-2-5.35L309.29,125h5.48c1.46,4.32,3,8.73,4.45,13.14l1.65,5h.51q2.07-7.06,4.13-14.15h0Z"/><path d="M253.68,145.91c-1.81,2.91-4.17,4.85-7.83,4.84-5.15,0-7.77-2.64-8-8.55l4.66-.68a20.26,20.26,0,0,0,.56,2.62,2.77,2.77,0,0,0,3.1,2,2.44,2.44,0,0,0,2.46-2.34c.15-2.09.06-4.19.07-6.29V125h5Z"/><path d="M345.18,124.92H350V150h-4.78Z"/><path class="cls-2" d="M325.51,129q-2.07,7.08-4.13,14.15h-.51l-1.65-5c1.5-2.39,3-4.8,4.52-7.16A20.44,20.44,0,0,1,325.51,129Z"/><path d="M326,127.64,325.5,129Z"/><path d="M206.48,124.88H224.9v3.94H211.51v5.64h12.38v4.07H211.58v7.53h13.77v4H206.48Z"/><path d="M171.39,124.92h4.87c0,2.68,0,5.32,0,8,0,3.26-.08,6.53.18,9.77.22,2.8,2.22,4.16,5.27,4,2.75-.11,4.17-1.41,4.28-4.3.15-4,.11-8.05.14-12.07,0-1.71,0-3.43,0-5.33H191c0,6.21.18,12.41-.07,18.6-.14,3.7-2.37,6-6,6.71a19.58,19.58,0,0,1-6.25.21c-4.7-.63-7.07-3.05-7.27-7.76C171.2,136.86,171.39,130.94,171.39,124.92Z"/><path d="M147.66,143.72l6.16-18.8h5.34c-2.95,8.46-5.85,16.74-8.77,25.1h-5.77l-8.73-25.08h5.45Z"/><path d="M234.63,150.07h-4.54v-4.33h4.54Z"/><path d="M413.39,124.87H418v25c-.05,0-.18.22-.34.26-3.19.64-5.23-.45-6.8-3.49a88.84,88.84,0,0,0-7.67-11.85V150h-4.77V125c.36-.08.63-.15.9-.19,2.74-.45,4.5.46,5.89,3.09a107.19,107.19,0,0,0,8.23,12.8Z"/><path d="M438.27,150h-4.73V125.13a2,2,0,0,1,.48-.27c3.14-.67,5,.62,6.52,3.45a104.19,104.19,0,0,0,8,12.43V124.92h4.61V150h-5c-3.13-5.07-6.29-10.19-9.46-15.3l-.43,0Z"/><path d="M489.39,150.09h-5.45c-.76-1.86-1.52-3.69-2.29-5.59h-10L469.52,150H464.2c3.33-8.43,6.62-16.76,9.94-25.14h5Zm-12.81-19c-1.24,3.39-2.27,6.19-3.33,9.1H480Z"/><path class="cls-2" d="M377.14,134.54H370v-5.63h10.09Z"/><path class="cls-2" d="M370.31,146c-.22-2.36-.45-4.71-.69-7.27h4.71Z"/></g></svg>