<svg xmlns="http://www.w3.org/2000/svg" viewBox="0 0 623.62 255.12"><defs><style>.cls-1{fill:#fff;}.cls-2{fill:#35495e;}.cls-3{fill:#41b782;}</style></defs><title>vuejs-bg</title><g id="BG"><rect class="cls-1" width="623.62" height="255.12"/></g><g id="Logo"><polygon id="White_Background" data-name="White Background" class="cls-1" points="342.15 12.23 337.38 12.23 308.19 64.07 279 12.23 273.96 12.23 178.56 12.23 311.81 242.89 317.45 233.14 439.42 21.99 445.06 12.23 342.15 12.23"/><g id="Right_Mountain" data-name="Right Mountain"><path class="cls-2" d="M308.18,133.92a.71.71,0,0,1-.32-.07.8.8,0,0,1-.41-1L330.31,81a.8.8,0,0,1,1.25-.31L341,88.55l29.92-33.86a.8.8,0,0,1,1.33.2l18.06,40.43a.8.8,0,0,1-1.46.66l-17.55-39.3L341.65,90.2a.8.8,0,0,1-1.11.08l-9.19-7.68-22.42,50.84A.82.82,0,0,1,308.18,133.92Z"/><polygon class="cls-2" points="371.09 54.52 333.99 83.41 340.65 88.97 371.09 54.52"/><path class="cls-2" d="M299.84,124.92a.8.8,0,0,1-.65-1.28l31.2-42.8a.79.79,0,0,1,1.12-.19.81.81,0,0,1,.18,1.13l-31.2,42.81A.79.79,0,0,1,299.84,124.92Z"/><polygon class="cls-2" points="328.06 86.54 300.24 124.65 307.8 132.39 328.06 86.54"/></g><g id="Bottom_Mountain" data-name="Bottom Mountain"><path class="cls-2" d="M287.61,188.07a.8.8,0,0,1-.68-1.21l35-59.57a.81.81,0,0,1,1.32-.09l28.05,35.27a.77.77,0,0,1-.13,1.12.79.79,0,0,1-1.12-.13L322.72,129.1l-34.41,58.57A.82.82,0,0,1,287.61,188.07Z"/><rect class="cls-2" x="269.09" y="147.59" width="61.51" height="1.6" transform="translate(-21.83 240.3) rotate(-42.28)"/><polygon class="cls-2" points="322.38 127.7 289.14 184.38 311.36 221.15 347.85 158.31 322.38 127.7"/></g><g id="Vue_Logo" data-name="Vue Logo"><polygon class="cls-3" points="319.42 12.23 308.19 32.19 296.95 12.23 259.55 12.23 308.19 98.64 356.83 12.23 319.42 12.23"/><polygon class="cls-2" points="319.42 12.23 308.19 32.19 296.95 12.23 279 12.23 308.19 64.07 337.38 12.23 319.42 12.23"/></g><g id="Left_Mountain" data-name="Left Mountain"><path class="cls-2" d="M312.11,138a.79.79,0,0,1-.58-.25l-45.6-47.87L255.18,130a.8.8,0,1,1-1.55-.41l11.11-41.48a.79.79,0,0,1,.59-.58.81.81,0,0,1,.78.22l46.58,48.91a.8.8,0,0,1,0,1.13A.74.74,0,0,1,312.11,138Z"/><path class="cls-2" d="M243,110.79a.79.79,0,0,1-.58-.25.81.81,0,0,1,0-1.14L265,87.75a.79.79,0,0,1,1.13,0,.81.81,0,0,1,0,1.14l-22.57,21.66A.79.79,0,0,1,243,110.79Z"/><polygon class="cls-2" points="265.75 89.62 256.31 124.23 280.42 165.77 311.44 137.38 265.75 89.62"/></g><polygon class="cls-3" points="311.81 242.89 178.56 12.23 273.96 12.23 273.96 25.25 201.12 25.25 311.81 216.87 422.5 25.25 342.15 25.25 342.15 12.23 445.06 12.23 439.42 21.99 317.45 233.14 311.81 242.89"/></g></svg>