<svg xmlns="http://www.w3.org/2000/svg" viewBox="0 0 623.62 255.12"><defs><style>.cls-1{fill:#fff;}.cls-2{fill:#35495e;}.cls-2,.cls-3,.cls-4,.cls-5{fill-rule:evenodd;}.cls-3{fill:#d0021b;}.cls-4{fill:#42b883;}.cls-5{fill:#314960;}</style></defs><title>vuejsmilano</title><g id="BG"><rect class="cls-1" width="623.62" height="255.12"/></g><g id="Logo"><g id="Page-3---final"><g id="GroupOutlined"><g id="Group-LAND"><g id="Group-Alternate"><g id="duomo"><g id="Group-4"><path id="Combined-Shape" class="cls-2" d="M55.54,120.36l10.3,17.81v85.67H46.78V135.78Z"/><path class="cls-2" d="M207.84,138.21l10.31-17.83,8.75,15.4v88.06H207.84Z"/></g><g id="Group-3"><path class="cls-2" d="M179.74,108l9-16.15,9,16.15Zm18.57,46.69v69.15H179.25V187.66Z"/><path class="cls-2" d="M75.38,108l9-16.15,9,16.15ZM94,186.79v37.05H74.89v-70Z"/></g><path class="cls-2" d="M126.36,108H107.29V76.12l9.54-19.06,9.53,19.06Zm-11,115.84h-8.09v-14Z"/><path class="cls-2" d="M166.86,108H147.8V76.12l9.53-19.06,9.53,19.06Zm0,101.08v14.76h-8.53Z"/></g><g id="madunin"><path class="cls-3" d="M132.07,61.82V23.7l4.77-9.53,4.76,9.53V61.82l-4.76,9.54Z"/></g><g id="logo-vue"><g id="logo-2"><g id="logo-2-2" data-name="logo"><polygon id="Path" class="cls-4" points="153.24 118.05 136.84 146.43 120.44 118.05 65.84 118.05 136.84 240.95 207.84 118.05 153.24 118.05"/><polygon class="cls-2" points="153.1 118.05 136.66 146.56 120.22 118.05 93.95 118.05 136.66 192.13 179.37 118.05 153.1 118.05"/></g></g></g></g><g id="text"><path id="Vuejs" class="cls-5" d="M265,56.2h16.2l16.61,51.28L314.29,56.2h16.24l-23.17,69.48H288.14Zm82.69,49.19V73.56h15.07v5.21c0,2.82,0,6.37,0,10.63s-.05,7.12-.05,8.54q0,6.28.3,9a11.38,11.38,0,0,0,1,4,6.72,6.72,0,0,0,2.42,2.51,6.53,6.53,0,0,0,3.4.89,8.41,8.41,0,0,0,7.37-4q2.69-4,2.68-11.12V73.56h15v52.12h-15v-7.54a24,24,0,0,1-7.19,6.72,16.48,16.48,0,0,1-8.35,2.17q-8.1,0-12.36-5.54T347.65,105.39Zm121.81-5.91v4.75h-35c.34,3.9,1.61,6.84,3.79,8.79s5.24,2.93,9.15,2.93a32.2,32.2,0,0,0,9.7-1.56,46.92,46.92,0,0,0,10.17-4.72v12.84a59.48,59.48,0,0,1-10.63,3.38A50.79,50.79,0,0,1,446,127q-12.75,0-19.8-7.19t-7.05-20.18q0-12.75,6.94-20t19.07-7.31q11.08,0,17.71,7.4T469.46,99.48Zm-15.4-5.54a11.36,11.36,0,0,0-2.49-7.65A8.19,8.19,0,0,0,445,83.38a9.57,9.57,0,0,0-7,2.72,13.32,13.32,0,0,0-3.42,7.84ZM494.3,73.56h15v51.19q0,10.47-4.52,16t-13.12,5.52h-7.4V135.31h2.61q4.23,0,5.84-2.14c1.07-1.43,1.6-4.23,1.6-8.42Zm0-20.29h15V66.86h-15Zm79.38,21.92V87.85a51.87,51.87,0,0,0-9.29-3.36A35.18,35.18,0,0,0,556,83.38c-2.86,0-5,.39-6.35,1.18a3.94,3.94,0,0,0-2.07,3.66,3.51,3.51,0,0,0,1.55,3.07,13.82,13.82,0,0,0,5.66,1.58l2.6.42q11.55,1.63,15.52,5.35t4,11.68q0,8.33-5.54,12.52T554.79,127a58.38,58.38,0,0,1-9.61-.82A73.35,73.35,0,0,1,535,123.77V111.11a39.59,39.59,0,0,0,9.19,3.63,38.19,38.19,0,0,0,9.56,1.21,13,13,0,0,0,6.61-1.35,4.38,4.38,0,0,0,2.23-4,3.82,3.82,0,0,0-1.53-3.33c-1-.73-3.06-1.29-6.1-1.7l-2.65-.37q-10-1.4-14-5.16t-4-11.45q0-8.28,5.12-12.29t15.68-4a58.3,58.3,0,0,1,8.71.7A85.06,85.06,0,0,1,573.68,75.19Z"/><path id="Milano" class="cls-5" d="M264.79,154.36h20.52l14.24,37.18,14.33-37.18h20.47v69.48H319.09V173l-14.38,37.46H294.47L280.09,173v50.82h-15.3Zm84.69,17.36h15v52.12h-15Zm0-20.29h15V165h-15Zm29.36,0h15v72.41h-15Zm50.4,49q-4.69,0-7.07,1.76a6.09,6.09,0,0,0-2.38,5.22,6.46,6.46,0,0,0,1.91,4.95,7.41,7.41,0,0,0,5.3,1.79,9,9,0,0,0,7.12-3.37,12.51,12.51,0,0,0,2.89-8.45v-1.9Zm22.89-6.29v29.74H437v-7.72a20.41,20.41,0,0,1-6.79,6.91,18.19,18.19,0,0,1-9.17,2.16,15.66,15.66,0,0,1-11.84-4.72q-4.54-4.72-4.54-12.27,0-9.16,5.68-13.44t17.82-4.29H437v-1.3a6.4,6.4,0,0,0-2.82-5.79q-2.81-1.84-8.72-1.84a36,36,0,0,0-9,1.07,29.09,29.09,0,0,0-7.73,3.21v-12.7a78.86,78.86,0,0,1,9.71-2,70.4,70.4,0,0,1,9.7-.68q12.7,0,18.33,5.57T452.13,194.1Zm61.06-2v31.74H498.11V199.55q0-6.75-.28-9.31a11.08,11.08,0,0,0-.93-3.77,6.5,6.5,0,0,0-2.4-2.53,6.43,6.43,0,0,0-3.42-.91,8.39,8.39,0,0,0-7.37,4q-2.68,4-2.68,11.15v25.64h-15V171.72h15v7.63a24.05,24.05,0,0,1,7.21-6.72,16.85,16.85,0,0,1,8.43-2.17q8.1,0,12.31,5.54T513.19,192.1Zm36.2-9.72a8.47,8.47,0,0,0-7.58,4q-2.61,4-2.61,11.47t2.61,11.47a9.15,9.15,0,0,0,15.1,0q2.58-4,2.58-11.47t-2.58-11.47A8.41,8.41,0,0,0,549.39,182.38Zm0-11.92q12.15,0,18.94,7.26t6.79,20.11q0,12.84-6.79,20.1t-18.94,7.26q-12.09,0-19-7.26t-6.87-20.1q0-12.86,6.87-20.11T549.39,170.46Z"/></g></g></g></g></g></svg>