<svg xmlns="http://www.w3.org/2000/svg" xmlns:xlink="http://www.w3.org/1999/xlink" viewBox="0 0 623.62 255.12"><defs><style>.cls-1{fill:none;}.cls-2{fill:#fff;}.cls-3{fill:#41b883;}.cls-4{clip-path:url(#clip-path);}.cls-5,.cls-6{fill:#35495e;}.cls-5{opacity:0.3;isolation:isolate;}</style><clipPath id="clip-path"><polygon class="cls-1" points="350.96 29.55 325.15 74.42 311.93 97.39 298.51 74.56 272.11 29.55 232.29 29.55 207.09 29.55 311.79 210.22 416.53 29.55 390.68 29.55 350.96 29.55"/></clipPath></defs><title>vuejsbarcelona</title><g id="BG"><rect class="cls-2" width="623.62" height="255.12"/></g><g id="Logo"><path class="cls-3" d="M416.44,29.62,311.81,210.12,207.18,29.62h64.88l26.4,45,13.45,22.93,13.25-23L351,29.62h65.46m26.81-15.44H342.05L311.81,66.77l-30.9-52.59H180.37L311.81,240.94,443.25,14.18Z"/><g class="cls-4"><path class="cls-3" d="M370.39,252.48H231.5V213.86s5.25-22.79,5.42-23.27.79-1,1,0c0,.17.31,1.75.79,4,1.45-6.87,3.51-17.23,3.68-17.72s.79-1,1,0c.17.66,2.06,12,3.19,18.34.65-2.72,1.13-4.78,1.13-4.95.18-.48.79-1,1,0,0,.31.48,2.23,1,4.95,1.27-6.87,3.36-17.85,3.5-18.34s.79-1,1,0c.17.66,2.06,12.29,3.19,18.51a44.21,44.21,0,0,1,1.27-5.25c.17-.49.79-1,1,0,0,.3.48,2.4,1,5.25,1.14-6.39,3.37-18,3.37-18.33.17-.48.79-1,1,0,.17.65,2.06,11.81,3.19,18,.65-2.71,1.13-4.77,1.13-4.94.18-.49.79-1,1,0,0,.3.48,2.23,1,4.77,1.58-6.7,4.29-17.54,4.29-18,.17-.48.79-1,1,0,.17.49,1.58,8.14,2.71,14.53l3.67-2.41s0-15.79.66-31.89c.48-12.6,4.29-39.54,4.94-43.22-.31-.31-1.44-1.27-1.44-1.92a3.83,3.83,0,0,1,2.23-2.71c.79,0,2.23,1.75,2.23,2.54,0,.48-1,1.44-1.44,1.92.48,3.37,4.15,29.66,4.77,43.05.17,3,.31,6.21.31,9.4.17-6.21.31-12.77.48-18.5.48-12.6,4.46-40,4.94-43.35-.31-.31-1.44-1.45-1.44-1.93,0-.79,1.27-2.54,2.23-2.54.79,0,2.23,1.75,2.23,2.54,0,.48-1,1.45-1.44,1.93.31,2.71,4.16,29.48,4.77,43.21.18,4.3.31,9.24.48,14l2.41-.78,1-8.31a24,24,0,0,0,0-3.5c-.17-.66-1-1.75-1-2.41s1.13-1.92,1.75-2.23h.48a4.67,4.67,0,0,1,1.75,2.23c.17.66-.79,1.75-1,2.41a24,24,0,0,0,0,3.5l1,8.44,2.4.65c.17-4.77.31-9.71.48-14,.65-14,4.64-41.6,4.77-43.35-.3-.31-1.44-1.44-1.44-1.92,0-.79,1.27-2.54,2.23-2.54.79,0,2.24,1.75,2.24,2.54,0,.48-1.14,1.58-1.58,1.92.17,1.44,4.46,30.45,4.94,43.7.17,5.73.31,12.29.48,18.5.17-3.19.17-6.52.31-9.41.65-13.38,4.15-39.23,4.77-43-.31-.31-1.44-1.44-1.27-1.92,0-.79,1.27-2.55,2.23-2.55.79,0,2.23,1.76,2.23,2.55,0,.48-1,1.44-1.44,1.92.48,3.67,4.46,30.76,4.94,43.35.66,16.1.79,27.91.79,27.91l4.16,6.39,1.58,16.1,3.36,5.9H351l1.58-30.93h1.13l2.71,31.1h2.72l1-24.88.65,4.94.17-8.62h.48l1,8.62.17-4.64Z"/></g><g class="cls-4"><path class="cls-5" d="M328,185.44V166.32c.17-3.2.17-6.53.31-9.38.65-13.38,4.15-39.23,4.77-43-.31-.31-1.44-1.44-1.27-1.92,0-.79,1.27-2.55,2.23-2.55.79,0,2.23,1.76,2.23,2.55,0,.48-1,1.44-1.44,1.92.48,3.67,4.47,30.76,4.95,43.35.65,16.1.79,27.91.79,27.91"/></g><g class="cls-4"><path class="cls-5" d="M282.51,189s0-15.79.65-31.89c.48-12.6,4.29-39.55,4.95-43.22-.31-.31-1.45-1.27-1.45-1.92a3.83,3.83,0,0,1,2.24-2.72c.79,0,2.23,1.75,2.23,2.54,0,.48-1,1.45-1.44,1.93.48,3.36,4.15,29.66,4.77,43,.17,3,.31,6.15.31,9.31v22.79"/></g><polygon class="cls-6" points="312.03 103.39 363.49 14.18 342.38 14.18 312.17 66.77 281.27 14.18 260.13 14.18 312.03 103.39"/></g></svg>